<svg xmlns="http://www.w3.org/2000/svg" viewBox="0 14.449999809265137 182.64999389648438 38.5" data-asc="1.05" width="182.64999389648438" height="38.5"><defs/><g fill="#CDEA68"><g transform="translate(0, 0)"><path d="M10.85 17.65Q16.55 17.65 20.73 19.77Q24.90 21.90 27.13 25.85Q29.35 29.80 29.35 35.15Q29.35 40.50 27.13 44.42Q24.90 48.35 20.73 50.42Q16.55 52.50 10.85 52.50L0 52.50L0 17.65L10.85 17.65M10.85 48.75Q17.60 48.75 21.15 45.17Q24.70 41.60 24.70 35.15Q24.70 28.65 21.13 25Q17.55 21.35 10.85 21.35L4.55 21.35L4.55 48.75L10.85 48.75ZM37.70 20.65Q36.40 20.65 35.50 19.75Q34.60 18.85 34.60 17.55Q34.60 16.25 35.50 15.35Q36.40 14.45 37.70 14.45Q38.95 14.45 39.83 15.35Q40.70 16.25 40.70 17.55Q40.70 18.85 39.83 19.75Q38.95 20.65 37.70 20.65M39.90 25.10L39.90 52.50L35.35 52.50L35.35 25.10L39.90 25.10ZM57.35 52.95Q54.20 52.95 51.70 51.88Q49.20 50.80 47.75 48.88Q46.30 46.95 46.15 44.45L50.85 44.45Q51.05 46.50 52.77 47.80Q54.50 49.10 57.30 49.10Q59.90 49.10 61.40 47.95Q62.90 46.80 62.90 45.05Q62.90 43.25 61.30 42.38Q59.70 41.50 56.35 40.65Q53.30 39.85 51.38 39.02Q49.45 38.20 48.07 36.58Q46.70 34.95 46.70 32.30Q46.70 30.20 47.95 28.45Q49.20 26.70 51.50 25.67Q53.80 24.65 56.75 24.65Q61.30 24.65 64.10 26.95Q66.90 29.25 67.10 33.25L62.55 33.25Q62.40 31.10 60.83 29.80Q59.25 28.50 56.60 28.50Q54.15 28.50 52.70 29.55Q51.25 30.60 51.25 32.30Q51.25 33.65 52.13 34.52Q53 35.40 54.32 35.92Q55.65 36.45 58 37.10Q60.95 37.90 62.80 38.67Q64.65 39.45 65.97 41Q67.30 42.55 67.35 45.05Q67.35 47.30 66.10 49.10Q64.85 50.90 62.58 51.92Q60.30 52.95 57.35 52.95ZM72.05 38.75Q72.05 34.50 73.75 31.32Q75.45 28.15 78.48 26.40Q81.50 24.65 85.40 24.65Q90.45 24.65 93.73 27.10Q97 29.55 98.05 33.90L93.15 33.90Q92.45 31.40 90.43 29.95Q88.40 28.50 85.40 28.50Q81.50 28.50 79.10 31.17Q76.70 33.85 76.70 38.75Q76.70 43.70 79.10 46.40Q81.50 49.10 85.40 49.10Q88.40 49.10 90.40 47.70Q92.40 46.30 93.15 43.70L98.05 43.70Q96.95 47.90 93.65 50.42Q90.35 52.95 85.40 52.95Q81.50 52.95 78.48 51.20Q75.45 49.45 73.75 46.25Q72.05 43.05 72.05 38.75ZM102.40 38.70Q102.40 34.50 104.10 31.32Q105.80 28.15 108.78 26.40Q111.75 24.65 115.40 24.65Q119 24.65 121.65 26.20Q124.30 27.75 125.60 30.10L125.60 25.10L130.20 25.10L130.20 52.50L125.60 52.50L125.60 47.40Q124.25 49.80 121.58 51.38Q118.90 52.95 115.35 52.95Q111.70 52.95 108.75 51.15Q105.80 49.35 104.10 46.10Q102.40 42.85 102.40 38.70M125.60 38.75Q125.60 35.65 124.35 33.35Q123.10 31.05 120.97 29.82Q118.85 28.60 116.30 28.60Q113.75 28.60 111.65 29.80Q109.55 31 108.30 33.30Q107.05 35.60 107.05 38.70Q107.05 41.85 108.30 44.17Q109.55 46.50 111.65 47.73Q113.75 48.95 116.30 48.95Q118.85 48.95 120.97 47.73Q123.10 46.50 124.35 44.17Q125.60 41.85 125.60 38.75ZM142.45 29.55Q143.65 27.20 145.88 25.90Q148.10 24.60 151.30 24.60L151.30 29.30L150.10 29.30Q142.45 29.30 142.45 37.60L142.45 52.50L137.90 52.50L137.90 25.10L142.45 25.10L142.45 29.55ZM154.85 38.70Q154.85 34.50 156.55 31.32Q158.25 28.15 161.23 26.40Q164.20 24.65 167.90 24.65Q171.10 24.65 173.85 26.13Q176.60 27.60 178.05 30L178.05 15.50L182.65 15.50L182.65 52.50L178.05 52.50L178.05 47.35Q176.70 49.80 174.05 51.38Q171.40 52.95 167.85 52.95Q164.20 52.95 161.23 51.15Q158.25 49.35 156.55 46.10Q154.85 42.85 154.85 38.70M178.05 38.75Q178.05 35.65 176.80 33.35Q175.55 31.05 173.43 29.82Q171.30 28.60 168.75 28.60Q166.20 28.60 164.10 29.80Q162.00 31 160.75 33.30Q159.50 35.60 159.50 38.70Q159.50 41.85 160.75 44.17Q162.00 46.50 164.10 47.73Q166.20 48.95 168.75 48.95Q171.30 48.95 173.43 47.73Q175.55 46.50 176.80 44.17Q178.05 41.85 178.05 38.75Z"/></g></g></svg>