<svg preserveAspectRatio="none" width="100%" height="100%" overflow="visible" style="display: block;" viewBox="0 0 14 19" fill="none" xmlns="http://www.w3.org/2000/svg">
<path id="Vector" d="M12.4226 5.80173C12.2662 3.79521 10.545 3.09262 8.36663 2.86251L8.41572 0.0828383L6.72522 0.0552259L6.67613 2.76127C6.23125 2.75206 5.77718 2.75513 5.32311 2.75513L5.37219 0.0306807L3.68169 0L3.6326 2.77967C3.2675 2.77967 2.90546 2.78274 2.5557 2.77354V2.76433L0.220902 2.72445L0.190221 4.53154C0.190221 4.53154 1.44199 4.52848 1.42052 4.55302C2.1047 4.56529 2.32253 4.96721 2.38082 5.31083L2.3256 8.47709C2.37162 8.47709 2.43298 8.48015 2.50355 8.49243L2.3256 8.48936L2.2489 12.9258C2.21515 13.1406 2.08322 13.4811 1.60153 13.475C1.62301 13.4934 0.371236 13.4535 0.371236 13.4535L0 15.4662L2.20288 15.506C2.61093 15.5152 3.01592 15.5275 3.4117 15.5367L3.36261 18.3471L5.05312 18.3747L5.1022 15.595C5.56548 15.6104 6.01649 15.6226 6.45522 15.6318L6.40614 18.3992L8.09664 18.4268L8.14573 15.6226C10.9929 15.5091 12.9964 14.828 13.2909 12.1588C13.5271 10.0111 12.5331 9.03241 10.9254 8.61822C11.9133 8.1396 12.5423 7.27133 12.4226 5.80173ZM9.94976 11.7722C9.91601 13.8738 6.32023 13.5701 5.17277 13.5517L5.24027 9.82704C6.38773 9.84545 9.98964 9.57852 9.94976 11.7722ZM9.25638 6.50125C9.22263 8.41266 6.22512 8.13653 5.27095 8.12119L5.32924 4.74324C6.28341 4.75858 9.29012 4.507 9.25638 6.50125Z" fill="var(--fill-0, white)"/>
</svg>
