<svg preserveAspectRatio="none" width="100%" height="100%" overflow="visible" style="display: block;" viewBox="0 0 319 666" fill="none" xmlns="http://www.w3.org/2000/svg">
<g id="Device Bezel (top inset shine)">
<mask id="path-1-inside-1_2011_1051" fill="white">
<path d="M235.538 0C264.522 0 279.015 -9.83987e-05 290.086 5.64062C299.824 10.6024 307.74 18.52 312.702 28.2578C318.343 39.3283 318.343 53.8205 318.343 82.8047V583.166C318.343 612.15 318.343 626.642 312.702 637.713C307.74 647.451 299.824 655.368 290.086 660.33C279.015 665.971 264.522 665.971 235.538 665.971H82.8047C53.8205 665.971 39.3283 665.971 28.2578 660.33C18.5199 655.368 10.6023 647.451 5.64062 637.713C5.40955e-05 626.642 0 612.15 0 583.166V82.8047C0 53.8206 2.94072e-05 39.3283 5.64062 28.2578C10.6023 18.5199 18.5199 10.6023 28.2578 5.64062C39.3283 2.94072e-05 53.8206 0 82.8047 0H125.542C126.133 7.14098e-05 126.694 0.258684 127.078 0.708008L127.528 1.23633C127.816 1.57324 128.238 1.7666 128.681 1.7666H189.662C190.105 1.7666 190.527 1.57322 190.814 1.23633L191.266 0.708008C191.649 0.258855 192.21 8.7082e-05 192.801 0H235.538Z"/>
</mask>
<g filter="url(#filter0_i_2011_1051)">
<path d="M235.538 0C264.522 0 279.015 -9.83987e-05 290.086 5.64062C299.824 10.6024 307.74 18.52 312.702 28.2578C318.343 39.3283 318.343 53.8205 318.343 82.8047V583.166C318.343 612.15 318.343 626.642 312.702 637.713C307.74 647.451 299.824 655.368 290.086 660.33C279.015 665.971 264.522 665.971 235.538 665.971H82.8047C53.8205 665.971 39.3283 665.971 28.2578 660.33C18.5199 655.368 10.6023 647.451 5.64062 637.713C5.40955e-05 626.642 0 612.15 0 583.166V82.8047C0 53.8206 2.94072e-05 39.3283 5.64062 28.2578C10.6023 18.5199 18.5199 10.6023 28.2578 5.64062C39.3283 2.94072e-05 53.8206 0 82.8047 0H125.542C126.133 7.14098e-05 126.694 0.258684 127.078 0.708008L127.528 1.23633C127.816 1.57324 128.238 1.7666 128.681 1.7666H189.662C190.105 1.7666 190.527 1.57322 190.814 1.23633L191.266 0.708008C191.649 0.258855 192.21 8.7082e-05 192.801 0H235.538Z" fill="var(--fill-0, black)"/>
</g>
<path d="M290.086 5.64062L290.201 5.41569L290.201 5.41569L290.086 5.64062ZM312.702 28.2578L312.927 28.1432L312.927 28.1432L312.702 28.2578ZM312.702 637.713L312.927 637.828L312.927 637.828L312.702 637.713ZM290.086 660.33L290.201 660.555L290.201 660.555L290.086 660.33ZM28.2578 660.33L28.1432 660.555L28.1432 660.555L28.2578 660.33ZM5.64062 637.713L5.41569 637.827L5.41569 637.828L5.64062 637.713ZM5.64062 28.2578L5.41569 28.1432L5.41569 28.1432L5.64062 28.2578ZM28.2578 5.64062L28.1432 5.41569L28.1432 5.41569L28.2578 5.64062ZM125.542 0L125.542 -0.252453H125.542V0ZM127.078 0.708008L127.27 0.54427L127.27 0.544077L127.078 0.708008ZM127.528 1.23633L127.336 1.40007L127.336 1.40029L127.528 1.23633ZM190.814 1.23633L191.006 1.4003L191.006 1.40027L190.814 1.23633ZM191.266 0.708008L191.074 0.544046L191.074 0.544065L191.266 0.708008ZM192.801 0L192.801 -0.252453L192.801 -0.252453L192.801 0ZM235.538 0V0.252453C250.034 0.252453 260.892 0.252625 269.509 0.956656C278.124 1.66045 284.478 3.06636 289.971 5.86556L290.086 5.64062L290.201 5.41569C284.624 2.57417 278.196 1.15977 269.55 0.453427C260.907 -0.252674 250.026 -0.252453 235.538 -0.252453V0ZM290.086 5.64062L289.971 5.86556C299.662 10.8031 307.54 18.6821 312.477 28.3724L312.702 28.2578L312.927 28.1432C307.941 18.3579 299.986 10.4016 290.201 5.41569L290.086 5.64062ZM312.702 28.2578L312.477 28.3724C315.276 33.8662 316.682 40.2199 317.386 48.8342C318.09 57.4514 318.09 68.3084 318.09 82.8047H318.343H318.595C318.595 68.3168 318.595 57.4356 317.889 48.7931C317.183 40.1476 315.769 33.72 312.927 28.1432L312.702 28.2578ZM318.343 82.8047H318.09V583.166H318.343H318.595V82.8047H318.343ZM318.343 583.166H318.09C318.09 597.662 318.09 608.519 317.386 617.137C316.682 625.751 315.276 632.105 312.477 637.598L312.702 637.713L312.927 637.828C315.769 632.251 317.183 625.823 317.889 617.178C318.595 608.535 318.595 597.654 318.595 583.166H318.343ZM312.702 637.713L312.477 637.598C307.54 647.289 299.662 655.168 289.971 660.105L290.086 660.33L290.201 660.555C299.986 655.569 307.941 647.613 312.927 637.828L312.702 637.713ZM290.086 660.33L289.971 660.105C284.478 662.904 278.124 664.31 269.509 665.014C260.892 665.718 250.034 665.718 235.538 665.718V665.971V666.223C250.026 666.223 260.907 666.223 269.55 665.517C278.196 664.811 284.624 663.397 290.201 660.555L290.086 660.33ZM235.538 665.971V665.718H82.8047V665.971V666.223H235.538V665.971ZM82.8047 665.971V665.718C68.3084 665.718 57.4514 665.718 48.8342 665.014C40.2199 664.31 33.8662 662.904 28.3724 660.105L28.2578 660.33L28.1432 660.555C33.72 663.396 40.1476 664.811 48.7931 665.517C57.4356 666.223 68.3168 666.223 82.8047 666.223V665.971ZM28.2578 660.33L28.3724 660.105C18.682 655.168 10.8031 647.289 5.86556 637.598L5.64062 637.713L5.41569 637.828C10.4016 647.613 18.3578 655.569 28.1432 660.555L28.2578 660.33ZM5.64062 637.713L5.86556 637.598C3.06643 632.105 1.66052 625.751 0.956713 617.136C0.252663 608.519 0.252453 597.662 0.252453 583.166H0H-0.252453C-0.252453 597.654 -0.252636 608.535 0.453484 617.178C1.15984 625.823 2.57425 632.251 5.41569 637.827L5.64062 637.713ZM0 583.166H0.252453V82.8047H0H-0.252453V583.166H0ZM0 82.8047H0.252453C0.252453 68.3085 0.252657 57.4514 0.956704 48.8342C1.66051 40.2199 3.06642 33.8662 5.86556 28.3724L5.64062 28.2578L5.41569 28.1432C2.57423 33.72 1.15983 40.1476 0.453475 48.7931C-0.252642 57.4356 -0.252453 68.3168 -0.252453 82.8047H0ZM5.64062 28.2578L5.86556 28.3724C10.8031 18.682 18.682 10.8031 28.3724 5.86556L28.2578 5.64062L28.1432 5.41569C18.3578 10.4016 10.4016 18.3578 5.41569 28.1432L5.64062 28.2578ZM28.2578 5.64062L28.3724 5.86556C33.8662 3.06642 40.2199 1.66051 48.8342 0.956704C57.4514 0.252657 68.3085 0.252453 82.8047 0.252453V0V-0.252453C68.3168 -0.252453 57.4357 -0.252642 48.7931 0.453475C40.1476 1.15983 33.72 2.57423 28.1432 5.41569L28.2578 5.64062ZM82.8047 0V0.252453H125.542V0V-0.252453H82.8047V0ZM125.542 0L125.542 0.252453C126.059 0.252515 126.551 0.478867 126.886 0.871938L127.078 0.708008L127.27 0.544077C126.838 0.0385018 126.207 -0.252373 125.542 -0.252453L125.542 0ZM127.078 0.708008L126.886 0.871746L127.336 1.40007L127.528 1.23633L127.72 1.07259L127.27 0.54427L127.078 0.708008ZM127.528 1.23633L127.336 1.40029C127.672 1.79363 128.164 2.01905 128.681 2.01905V1.7666V1.51415C128.311 1.51415 127.96 1.35285 127.72 1.07236L127.528 1.23633ZM128.681 1.7666V2.01905H189.662V1.7666V1.51415H128.681V1.7666ZM189.662 1.7666V2.01905C190.179 2.01905 190.67 1.79361 191.006 1.4003L190.814 1.23633L190.622 1.07236C190.383 1.35283 190.032 1.51415 189.662 1.51415V1.7666ZM190.814 1.23633L191.006 1.40027L191.458 0.871951L191.266 0.708008L191.074 0.544065L190.622 1.07238L190.814 1.23633ZM191.266 0.708008L191.458 0.87197C191.793 0.478919 192.284 0.252529 192.801 0.252453L192.801 0L192.801 -0.252453C192.136 -0.252355 191.505 0.03879 191.074 0.544046L191.266 0.708008ZM192.801 0V0.252453H235.538V0V-0.252453H192.801V0Z" fill="var(--stroke-0, white)" fill-opacity="0.05" mask="url(#path-1-inside-1_2011_1051)"/>
</g>
<defs>
<filter id="filter0_i_2011_1051" x="0" y="0" width="318.343" height="666.223" filterUnits="userSpaceOnUse" color-interpolation-filters="sRGB">
<feFlood flood-opacity="0" result="BackgroundImageFix"/>
<feBlend mode="normal" in="SourceGraphic" in2="BackgroundImageFix" result="shape"/>
<feColorMatrix in="SourceAlpha" type="matrix" values="0 0 0 0 0 0 0 0 0 0 0 0 0 0 0 0 0 0 127 0" result="hardAlpha"/>
<feOffset dy="0.252453"/>
<feGaussianBlur stdDeviation="0.378679"/>
<feComposite in2="hardAlpha" operator="arithmetic" k2="-1" k3="1"/>
<feColorMatrix type="matrix" values="0 0 0 0 1 0 0 0 0 1 0 0 0 0 1 0 0 0 0.2 0"/>
<feBlend mode="normal" in2="shape" result="effect1_innerShadow_2011_1051"/>
</filter>
</defs>
</svg>
