<svg preserveAspectRatio="none" width="100%" height="100%" overflow="visible" style="display: block;" viewBox="0 0 9 13" fill="none" xmlns="http://www.w3.org/2000/svg">
<path id="Vector" d="M1 3.406C1 2.94507 1 2.71467 1.06933 2.50933C1.27093 1.91259 1.8024 1.68101 2.3348 1.43851C2.93333 1.16589 3.23253 1.02959 3.52907 1.0056C3.86573 0.978374 4.20293 1.05091 4.49067 1.21239C4.87213 1.42645 5.13813 1.83324 5.41053 2.16403C6.6684 3.69173 7.2972 4.45573 7.52733 5.29813C7.71307 5.97787 7.71307 6.6888 7.52733 7.36853C7.19173 8.5972 6.13133 9.6272 5.3464 10.5805C4.94493 11.0681 4.74413 11.312 4.49067 11.4543C4.20293 11.6157 3.86573 11.6883 3.52907 11.6611C3.23253 11.6371 2.93333 11.5008 2.3348 11.2281C1.8024 10.9856 1.27093 10.7541 1.06933 10.1573C1 9.952 1 9.7216 1 9.26067V3.406Z" stroke="var(--stroke-0, #99E39E)" stroke-width="2"/>
</svg>
