<svg preserveAspectRatio="none" width="100%" height="100%" overflow="visible" style="display: block;" viewBox="0 0 1211 196" fill="none" xmlns="http://www.w3.org/2000/svg">
<path id="Vector" d="M26.1768 61.4246H13.6575H0V195.854H1210.96V74.515L1131.87 34.7401L1086.34 41.2854L1056.74 34.7401L1024.31 41.2854L983.223 8.49594L929.848 41.2854L854.162 49.341L817.173 34.7401L764.25 45.8166H730.675L677.183 29.7053L645.847 25.935L627.675 11.0766L608.327 0L559.956 34.7401H537.195L518.416 42.2923H491.1L461.509 54.3759L415.984 49.341L377.288 57.3967L286.239 42.2923L231.728 10.7317L201.448 38.7679L138.851 54.3759H96.7401L43.8178 63.9419L26.1768 61.4246Z" fill="url(#paint0_linear_2011_1070)"/>
<defs>
<linearGradient id="paint0_linear_2011_1070" x1="605.482" y1="-877.7" x2="605.482" y2="168.742" gradientUnits="userSpaceOnUse">
<stop stop-color="#99E39E"/>
<stop offset="1" stop-color="#99E39E" stop-opacity="0"/>
</linearGradient>
</defs>
</svg>
