<svg preserveAspectRatio="none" width="100%" height="100%" overflow="visible" style="display: block;" viewBox="0 0 12 17" fill="none" xmlns="http://www.w3.org/2000/svg">
<path id="Vector" d="M10.8698 5.07651C10.7329 3.32081 9.22685 2.70604 7.32081 2.5047L7.36376 0.0724836L5.88456 0.0483226L5.84161 2.41611C5.45235 2.40805 5.05503 2.41074 4.65772 2.41074L4.70067 0.0268456L3.22148 0L3.17852 2.43222C2.85906 2.43222 2.54228 2.4349 2.23624 2.42685V2.41879L0.193289 2.38389L0.166443 3.9651C0.166443 3.9651 1.26174 3.96242 1.24295 3.98389C1.84161 3.99463 2.03221 4.34631 2.08322 4.64698L2.0349 7.41745C2.07517 7.41745 2.12886 7.42014 2.1906 7.43087L2.0349 7.42819L1.96778 11.3101C1.93825 11.498 1.82282 11.796 1.40134 11.7906C1.42013 11.8067 0.324832 11.7718 0.324832 11.7718L0 13.5329L1.92752 13.5678C2.28456 13.5758 2.63893 13.5866 2.98524 13.5946L2.94228 16.0537L4.42148 16.0779L4.46443 13.6456C4.8698 13.6591 5.26443 13.6698 5.64832 13.6779L5.60537 16.0993L7.08456 16.1235L7.12752 13.6698C9.61879 13.5705 11.3718 12.9745 11.6295 10.6389C11.8362 8.75973 10.9664 7.90336 9.55973 7.54094C10.4242 7.12215 10.9745 6.36242 10.8698 5.07651ZM8.70604 10.3007C8.67651 12.1396 5.5302 11.8738 4.52617 11.8577L4.58523 8.59866C5.58926 8.61477 8.74094 8.38121 8.70604 10.3007ZM8.09933 5.68859C8.0698 7.36107 5.44698 7.11946 4.61208 7.10604L4.66309 4.15034C5.49799 4.16376 8.12886 3.94362 8.09933 5.68859Z" fill="var(--fill-0, white)"/>
</svg>
