<svg preserveAspectRatio="none" width="100%" height="100%" overflow="visible" style="display: block;" viewBox="0 0 112 92" fill="none" xmlns="http://www.w3.org/2000/svg">
<path id="Ellipse 576" d="M21.1967 89.9896C18.4828 92.7034 14.0427 92.7266 11.6885 89.6956C6.40905 82.8987 2.75957 74.9418 1.06823 66.4388C-1.07684 55.6548 0.0240877 44.4769 4.2318 34.3186C8.43951 24.1602 15.565 15.4778 24.7073 9.36913C33.8495 3.26048 44.5979 -1.31117e-07 55.5932 0C66.5884 1.31117e-07 77.3368 3.26048 86.479 9.36913C95.6213 15.4778 102.747 24.1602 106.954 34.3186C111.162 44.4769 112.263 55.6548 110.118 66.4388C108.427 74.9418 104.777 82.8987 99.4978 89.6956C97.1436 92.7266 92.7034 92.7034 89.9896 89.9896C87.2758 87.2758 87.3325 82.9026 89.5585 79.7762C92.9609 74.9974 95.3322 69.532 96.4868 63.7274C98.0956 55.6394 97.2699 47.2559 94.1142 39.6372C90.9584 32.0185 85.6142 25.5066 78.7576 20.9251C71.9009 16.3436 63.8396 13.8983 55.5932 13.8983C47.3467 13.8983 39.2854 16.3436 32.4287 20.9251C25.5721 25.5066 20.2279 32.0185 17.0721 39.6372C13.9164 47.2559 13.0907 55.6394 14.6995 63.7274C15.8541 69.532 18.2254 74.9974 21.6278 79.7762C23.8538 82.9026 23.9105 87.2758 21.1967 89.9896Z" fill="var(--fill-0, white)" fill-opacity="0.4"/>
</svg>
