<svg preserveAspectRatio="none" width="100%" height="100%" overflow="visible" style="display: block;" viewBox="0 0 1214 203" fill="none" xmlns="http://www.w3.org/2000/svg">
<path id="Vector" d="M27.1984 64.0386H14.6687H1V202H1212.96V77.473L1133.8 36.6529L1088.24 43.3702L1058.61 36.6529L1026.16 43.3702L983.226 10.1781L931.613 43.3702L855.865 51.6375L818.845 36.6529L765.879 48.0205H732.276L678.741 31.4859L647.844 27.1575L629.192 12.3676L609.828 1L561.417 36.6529H538.637L519.842 44.4036H492.505L462.889 56.8047L417.327 51.6375L378.599 59.9049L287.474 44.4036L232.728 11.0959L202.614 40.7866L139.965 56.8047H97.8197L44.8539 66.6221L27.1984 64.0386Z" stroke="var(--stroke-0, #99E39E)" stroke-width="1.5"/>
</svg>
