<svg preserveAspectRatio="none" width="100%" height="100%" overflow="visible" style="display: block;" viewBox="0 0 62 63" fill="none" xmlns="http://www.w3.org/2000/svg">
<path id="Ellipse 17" opacity="0.35" d="M61.5382 28.5878C62.0694 34.9262 60.6774 41.2778 57.5486 46.7929C54.4198 52.3079 49.7033 56.7234 44.0301 59.4487C38.3569 62.1739 31.9975 63.079 25.8028 62.0427C19.6081 61.0064 13.8735 58.0782 9.36608 53.6499C4.85869 49.2216 1.79352 43.5043 0.580626 37.2629C-0.632268 31.0216 0.0649622 24.5538 2.57904 18.7248C5.09312 12.8958 9.30414 7.98371 14.6488 4.64557C19.9934 1.30743 26.2167 -0.297524 32.4861 0.0454171L32.3007 3.52561C26.7309 3.22094 21.2021 4.64678 16.454 7.61239C11.7058 10.578 7.96472 14.9419 5.73122 20.1204C3.49771 25.2988 2.87829 31.0448 3.95583 36.5896C5.03336 42.1345 7.75646 47.2137 11.7608 51.1478C15.7652 55.0819 20.8598 57.6833 26.3632 58.604C31.8666 59.5246 37.5162 58.7206 42.5563 56.2995C47.5964 53.8784 51.7865 49.9556 54.5662 45.056C57.3458 40.1565 58.5824 34.5137 58.1105 28.8827L61.5382 28.5878Z" fill="var(--fill-0, white)" fill-opacity="0.8"/>
</svg>
