<svg preserveAspectRatio="none" width="100%" height="100%" overflow="visible" style="display: block;" viewBox="0 0 127 38" fill="none" xmlns="http://www.w3.org/2000/svg">
<g id="Mobile app store badge">
<path id="Google Play" d="M63.4189 20.2452C61.2298 20.2452 59.4455 21.9104 59.4455 24.2038C59.4455 26.4833 61.2298 28.1624 63.4189 28.1624C65.609 28.1624 67.3933 26.4833 67.3933 24.2038C67.3924 21.9104 65.6081 20.2452 63.4189 20.2452ZM63.4189 26.6043C62.2192 26.6043 61.1851 25.6149 61.1851 24.2047C61.1851 22.7797 62.2201 21.8052 63.4189 21.8052C64.6187 21.8052 65.6528 22.7797 65.6528 24.2047C65.6528 25.6139 64.6187 26.6043 63.4189 26.6043ZM54.7497 20.2452C52.5606 20.2452 50.7763 21.9104 50.7763 24.2038C50.7763 26.4833 52.5606 28.1624 54.7497 28.1624C56.9398 28.1624 58.7241 26.4833 58.7241 24.2038C58.7241 21.9104 56.9398 20.2452 54.7497 20.2452ZM54.7497 26.6043C53.55 26.6043 52.5159 25.6149 52.5159 24.2047C52.5159 22.7797 53.5509 21.8052 54.7497 21.8052C55.9495 21.8052 56.9836 22.7797 56.9836 24.2047C56.9845 25.6139 55.9495 26.6043 54.7497 26.6043ZM44.4387 21.4608V23.1399H48.4577C48.3377 24.0847 48.0231 24.7744 47.5428 25.2537C46.9583 25.8382 46.0433 26.4833 44.4387 26.4833C41.9647 26.4833 40.0305 24.4886 40.0305 22.0146C40.0305 19.5407 41.9647 17.546 44.4387 17.546C45.7734 17.546 46.7479 18.071 47.4674 18.7458L48.6523 17.5609C47.647 16.6013 46.3132 15.8669 44.4387 15.8669C41.0497 15.8669 38.2007 18.6257 38.2007 22.0146C38.2007 25.4036 41.0497 28.1624 44.4387 28.1624C46.2676 28.1624 47.648 27.562 48.7267 26.4377C49.8362 25.3282 50.1815 23.7682 50.1815 22.5089C50.1815 22.1198 50.1517 21.7596 50.0912 21.4599H44.4387V21.4608ZM86.61 22.7648C86.2805 21.8806 85.2752 20.2452 83.221 20.2452C81.1817 20.2452 79.4868 21.8499 79.4868 24.2038C79.4868 26.4228 81.1668 28.1624 83.4156 28.1624C85.2296 28.1624 86.2795 27.0529 86.7151 26.4079L85.3655 25.5078C84.916 26.1677 84.3007 26.6024 83.4156 26.6024C82.5313 26.6024 81.9012 26.1975 81.4963 25.4026L86.7896 23.2135L86.61 22.7648ZM81.2115 24.0847C81.1668 22.5545 82.3964 21.7754 83.2815 21.7754C83.9712 21.7754 84.5558 22.1207 84.7512 22.615L81.2115 24.0847ZM76.9086 27.9232H78.6472V16.2876H76.9086V27.9232ZM74.0585 21.1304H73.999C73.609 20.665 72.8588 20.2452 71.915 20.2452C69.9352 20.2452 68.1212 21.9849 68.1212 24.2196C68.1212 26.4386 69.9352 28.1633 71.915 28.1633C72.8597 28.1633 73.609 27.7435 73.999 27.2642H74.0585V27.8338C74.0585 29.3482 73.2488 30.1579 71.9448 30.1579C70.88 30.1579 70.22 29.3938 69.9501 28.7488L68.4358 29.3789C68.8704 30.4279 70.0246 31.7179 71.9448 31.7179C73.9841 31.7179 75.7088 30.5181 75.7088 27.5937V20.4863H74.0595V21.1304H74.0585ZM72.0648 26.6043C70.8651 26.6043 69.8608 25.599 69.8608 24.2196C69.8608 22.8244 70.8651 21.8052 72.0648 21.8052C73.2488 21.8052 74.1786 22.8244 74.1786 24.2196C74.1786 25.599 73.2488 26.6043 72.0648 26.6043ZM94.7579 16.2876H90.5964V27.9232H92.3323V23.515H94.757C96.6818 23.515 98.575 22.1217 98.575 19.9018C98.575 17.6819 96.6827 16.2876 94.7579 16.2876ZM94.8026 21.8955H92.3323V17.9072H94.8026C96.101 17.9072 96.8382 18.9822 96.8382 19.9018C96.8382 20.8028 96.101 21.8955 94.8026 21.8955ZM105.536 20.2248C104.279 20.2248 102.977 20.7786 102.438 22.0063L103.979 22.6494C104.309 22.0063 104.923 21.7959 105.566 21.7959C106.464 21.7959 107.377 22.3348 107.392 23.2926V23.4127C107.078 23.233 106.404 22.964 105.581 22.964C103.919 22.964 102.227 23.8771 102.227 25.5832C102.227 27.1404 103.59 28.1428 105.116 28.1428C106.284 28.1428 106.928 27.6188 107.332 27.0045H107.391V27.9027H109.068V23.4415C109.069 21.3771 107.526 20.2248 105.536 20.2248ZM105.326 26.6015C104.758 26.6015 103.964 26.3167 103.964 25.613C103.964 24.7148 104.953 24.3704 105.806 24.3704C106.568 24.3704 106.929 24.5352 107.392 24.7595C107.257 25.8382 106.329 26.6015 105.326 26.6015ZM115.176 20.4789L113.185 25.5236H113.126L111.059 20.4789H109.189L112.287 27.5294L110.52 31.4517H112.332L117.108 20.4789H115.176ZM99.5337 27.9232H101.27V16.2876H99.5337V27.9232Z" fill="var(--fill-0, white)"/>
<g id="Get it on">
<path d="M44.1353 9.53381C44.1353 10.3138 43.9045 10.9346 43.4419 11.3981C42.9169 11.9492 42.2319 12.2247 41.3905 12.2247C40.5844 12.2247 39.8984 11.9454 39.3353 11.387C38.7713 10.8276 38.4893 10.1351 38.4893 9.30856C38.4893 8.48111 38.7713 7.78862 39.3353 7.23016C39.8984 6.67076 40.5844 6.39153 41.3905 6.39153C41.7907 6.39153 42.1732 6.46972 42.5362 6.62516C42.9002 6.78152 43.1915 6.98909 43.4093 7.24877L42.9188 7.74022C42.5493 7.2981 42.0401 7.07751 41.3895 7.07751C40.8013 7.07751 40.2931 7.28414 39.864 7.6974C39.4349 8.11066 39.2208 8.64772 39.2208 9.30763C39.2208 9.96755 39.4349 10.5046 39.864 10.9179C40.2931 11.3311 40.8013 11.5378 41.3895 11.5378C42.0131 11.5378 42.5334 11.3302 42.9495 10.9141C43.2194 10.6433 43.3758 10.2663 43.4177 9.78325H41.3895V9.11217H44.0953C44.1232 9.2583 44.1353 9.39885 44.1353 9.53381Z" fill="var(--fill-0, white)"/>
<path d="M48.4262 7.20135H45.8834V8.97168H48.1768V9.64276H45.8834V11.4131H48.4262V12.1H45.1657V6.51538H48.4262V7.20135Z" fill="var(--fill-0, white)"/>
<path d="M51.4521 12.1H50.7344V7.20135H49.1745V6.51538H53.012V7.20135H51.4521V12.1Z" fill="var(--fill-0, white)"/>
<path d="M55.7885 12.1V6.51538H56.5061V12.1H55.7885Z" fill="var(--fill-0, white)"/>
<path d="M59.6885 12.1H58.9709V7.20135H57.4109V6.51538H61.2485V7.20135H59.6885V12.1Z" fill="var(--fill-0, white)"/>
<path d="M68.513 11.3786C67.9638 11.9427 67.2815 12.2247 66.4653 12.2247C65.649 12.2247 64.9667 11.9427 64.4185 11.3786C63.8693 10.8146 63.5957 10.124 63.5957 9.30768C63.5957 8.49139 63.8693 7.80076 64.4185 7.23671C64.9667 6.67267 65.649 6.38971 66.4653 6.38971C67.2769 6.38971 67.9582 6.6736 68.5092 7.24044C69.0603 7.80728 69.3358 8.49605 69.3358 9.30768C69.3358 10.124 69.0612 10.8146 68.513 11.3786ZM64.9481 10.9105C65.3614 11.3293 65.8668 11.5378 66.4653 11.5378C67.0637 11.5378 67.5701 11.3284 67.9824 10.9105C68.3957 10.4916 68.6032 9.95735 68.6032 9.30768C68.6032 8.658 68.3957 8.12374 67.9824 7.70489C67.5701 7.28605 67.0637 7.07755 66.4653 7.07755C65.8668 7.07755 65.3614 7.28698 64.9481 7.70489C64.5358 8.12374 64.3282 8.658 64.3282 9.30768C64.3282 9.95735 64.5358 10.4916 64.9481 10.9105Z" fill="var(--fill-0, white)"/>
<path d="M70.3429 12.1V6.51538H71.2159L73.9301 10.8593H73.9608L73.9301 9.78331V6.51538H74.6477V12.1H73.8984L71.0586 7.54481H71.0279L71.0586 8.62078V12.1H70.3429Z" fill="var(--fill-0, white)"/>
<path d="M44.1353 9.53381C44.1353 10.3138 43.9045 10.9346 43.4419 11.3981C42.9169 11.9492 42.2319 12.2247 41.3905 12.2247C40.5844 12.2247 39.8984 11.9454 39.3353 11.387C38.7713 10.8276 38.4893 10.1351 38.4893 9.30856C38.4893 8.48111 38.7713 7.78862 39.3353 7.23016C39.8984 6.67076 40.5844 6.39153 41.3905 6.39153C41.7907 6.39153 42.1732 6.46972 42.5362 6.62516C42.9002 6.78152 43.1915 6.98909 43.4093 7.24877L42.9188 7.74022C42.5493 7.2981 42.0401 7.07751 41.3895 7.07751C40.8013 7.07751 40.2931 7.28414 39.864 7.6974C39.4349 8.11066 39.2208 8.64772 39.2208 9.30763C39.2208 9.96755 39.4349 10.5046 39.864 10.9179C40.2931 11.3311 40.8013 11.5378 41.3895 11.5378C42.0131 11.5378 42.5334 11.3302 42.9495 10.9141C43.2194 10.6433 43.3758 10.2663 43.4177 9.78325H41.3895V9.11217H44.0953C44.1232 9.2583 44.1353 9.39885 44.1353 9.53381Z" stroke="var(--stroke-0, white)" stroke-width="0.169231" stroke-miterlimit="10"/>
<path d="M48.4262 7.20135H45.8834V8.97168H48.1768V9.64276H45.8834V11.4131H48.4262V12.1H45.1657V6.51538H48.4262V7.20135Z" stroke="var(--stroke-0, white)" stroke-width="0.169231" stroke-miterlimit="10"/>
<path d="M51.4521 12.1H50.7344V7.20135H49.1745V6.51538H53.012V7.20135H51.4521V12.1Z" stroke="var(--stroke-0, white)" stroke-width="0.169231" stroke-miterlimit="10"/>
<path d="M55.7885 12.1V6.51538H56.5061V12.1H55.7885Z" stroke="var(--stroke-0, white)" stroke-width="0.169231" stroke-miterlimit="10"/>
<path d="M59.6885 12.1H58.9709V7.20135H57.4109V6.51538H61.2485V7.20135H59.6885V12.1Z" stroke="var(--stroke-0, white)" stroke-width="0.169231" stroke-miterlimit="10"/>
<path d="M68.513 11.3786C67.9638 11.9427 67.2815 12.2247 66.4653 12.2247C65.649 12.2247 64.9667 11.9427 64.4185 11.3786C63.8693 10.8146 63.5957 10.124 63.5957 9.30768C63.5957 8.49139 63.8693 7.80076 64.4185 7.23671C64.9667 6.67267 65.649 6.38971 66.4653 6.38971C67.2769 6.38971 67.9582 6.6736 68.5092 7.24044C69.0603 7.80728 69.3358 8.49605 69.3358 9.30768C69.3358 10.124 69.0612 10.8146 68.513 11.3786ZM64.9481 10.9105C65.3614 11.3293 65.8668 11.5378 66.4653 11.5378C67.0637 11.5378 67.5701 11.3284 67.9824 10.9105C68.3957 10.4916 68.6032 9.95735 68.6032 9.30768C68.6032 8.658 68.3957 8.12374 67.9824 7.70489C67.5701 7.28605 67.0637 7.07755 66.4653 7.07755C65.8668 7.07755 65.3614 7.28698 64.9481 7.70489C64.5358 8.12374 64.3282 8.658 64.3282 9.30768C64.3282 9.95735 64.5358 10.4916 64.9481 10.9105Z" stroke="var(--stroke-0, white)" stroke-width="0.169231" stroke-miterlimit="10"/>
<path d="M70.3429 12.1V6.51538H71.2159L73.9301 10.8593H73.9608L73.9301 9.78331V6.51538H74.6477V12.1H73.8984L71.0586 7.54481H71.0279L71.0586 8.62078V12.1H70.3429Z" stroke="var(--stroke-0, white)" stroke-width="0.169231" stroke-miterlimit="10"/>
</g>
<g id="Google Play logo" filter="url(#filter0_ii_2011_866)">
<path id="Vector" d="M9.71352 7.01606C9.44267 7.30273 9.28257 7.74764 9.28257 8.32379V28.9087C9.28257 29.4858 9.44267 29.9297 9.71352 30.2164L9.7824 30.2834L21.3137 18.7521V18.6162V18.4803L9.7824 6.94811L9.71352 7.01606Z" fill="url(#paint0_linear_2011_866)"/>
<path id="Vector_2" d="M25.1569 22.5972L21.3137 18.7522V18.6163V18.4804L25.1578 14.6363L25.2444 14.6856L29.7986 17.2732C31.0989 18.0122 31.0989 19.2213 29.7986 19.9612L25.2444 22.5488L25.1569 22.5972Z" fill="url(#paint1_linear_2011_866)"/>
<g id="Vector_3" filter="url(#filter1_i_2011_866)">
<path d="M25.2443 22.5479L21.3127 18.6163L9.7135 30.2165C10.1417 30.6707 10.85 30.7265 11.6476 30.2742L25.2443 22.5479Z" fill="url(#paint2_linear_2011_866)"/>
</g>
<path id="Vector_4" d="M25.2443 14.6847L11.6476 6.95931C10.85 6.50603 10.1417 6.5628 9.7135 7.01702L21.3137 18.6172L25.2443 14.6847Z" fill="url(#paint3_linear_2011_866)"/>
</g>
</g>
<defs>
<filter id="filter0_ii_2011_866" x="9.28257" y="6.6465" width="21.4913" height="23.9401" filterUnits="userSpaceOnUse" color-interpolation-filters="sRGB">
<feFlood flood-opacity="0" result="BackgroundImageFix"/>
<feBlend mode="normal" in="SourceGraphic" in2="BackgroundImageFix" result="shape"/>
<feColorMatrix in="SourceAlpha" type="matrix" values="0 0 0 0 0 0 0 0 0 0 0 0 0 0 0 0 0 0 127 0" result="hardAlpha"/>
<feOffset dy="-0.126923"/>
<feComposite in2="hardAlpha" operator="arithmetic" k2="-1" k3="1"/>
<feColorMatrix type="matrix" values="0 0 0 0 0 0 0 0 0 0 0 0 0 0 0 0 0 0 0.12 0"/>
<feBlend mode="normal" in2="shape" result="effect1_innerShadow_2011_866"/>
<feColorMatrix in="SourceAlpha" type="matrix" values="0 0 0 0 0 0 0 0 0 0 0 0 0 0 0 0 0 0 127 0" result="hardAlpha"/>
<feOffset dy="0.126923"/>
<feComposite in2="hardAlpha" operator="arithmetic" k2="-1" k3="1"/>
<feColorMatrix type="matrix" values="0 0 0 0 1 0 0 0 0 1 0 0 0 0 1 0 0 0 0.25 0"/>
<feBlend mode="normal" in2="effect1_innerShadow_2011_866" result="effect2_innerShadow_2011_866"/>
</filter>
<filter id="filter1_i_2011_866" x="9.7135" y="18.6163" width="15.5308" height="11.9703" filterUnits="userSpaceOnUse" color-interpolation-filters="sRGB">
<feFlood flood-opacity="0" result="BackgroundImageFix"/>
<feBlend mode="normal" in="SourceGraphic" in2="BackgroundImageFix" result="shape"/>
<feColorMatrix in="SourceAlpha" type="matrix" values="0 0 0 0 0 0 0 0 0 0 0 0 0 0 0 0 0 0 127 0" result="hardAlpha"/>
<feOffset dy="-0.126923"/>
<feComposite in2="hardAlpha" operator="arithmetic" k2="-1" k3="1"/>
<feColorMatrix type="matrix" values="0 0 0 0 0 0 0 0 0 0 0 0 0 0 0 0 0 0 0.08 0"/>
<feBlend mode="normal" in2="shape" result="effect1_innerShadow_2011_866"/>
</filter>
<linearGradient id="paint0_linear_2011_866" x1="20.2915" y1="8.10599" x2="4.67136" y2="23.7262" gradientUnits="userSpaceOnUse">
<stop stop-color="#00A0FF"/>
<stop offset="0.0066" stop-color="#00A1FF"/>
<stop offset="0.2601" stop-color="#00BEFF"/>
<stop offset="0.5122" stop-color="#00D2FF"/>
<stop offset="0.7604" stop-color="#00DFFF"/>
<stop offset="1" stop-color="#00E3FF"/>
</linearGradient>
<linearGradient id="paint1_linear_2011_866" x1="31.4912" y1="18.6163" x2="8.97042" y2="18.6163" gradientUnits="userSpaceOnUse">
<stop stop-color="#FFE000"/>
<stop offset="0.4087" stop-color="#FFBD00"/>
<stop offset="0.7754" stop-color="#FFA500"/>
<stop offset="1" stop-color="#FF9C00"/>
</linearGradient>
<linearGradient id="paint2_linear_2011_866" x1="23.1092" y1="20.7514" x2="1.92632" y2="41.9343" gradientUnits="userSpaceOnUse">
<stop stop-color="#FF3A44"/>
<stop offset="1" stop-color="#C31162"/>
</linearGradient>
<linearGradient id="paint3_linear_2011_866" x1="6.79219" y1="0.16451" x2="16.2509" y2="9.62327" gradientUnits="userSpaceOnUse">
<stop stop-color="#32A071"/>
<stop offset="0.0685" stop-color="#2DA771"/>
<stop offset="0.4762" stop-color="#15CF74"/>
<stop offset="0.8009" stop-color="#06E775"/>
<stop offset="1" stop-color="#00F076"/>
</linearGradient>
</defs>
</svg>
