<svg preserveAspectRatio="none" width="100%" height="100%" overflow="visible" style="display: block;" viewBox="0 0 26 22" fill="none" xmlns="http://www.w3.org/2000/svg">
<path id="Vector" d="M5.77667 1.31715C9.78611 2.024 12.1757 3.50258 13 4.35143C13.8243 3.50258 16.2139 2.024 20.2233 1.31715C22.2545 0.959057 23.2701 0.780017 24.1351 1.46627C25 2.15254 25 3.26692 25 5.49574V13.5055C25 15.5435 25 16.5624 24.4449 17.1985C23.8897 17.8347 22.6676 18.0501 20.2233 18.4811C18.0444 18.8652 16.3439 19.4772 15.1129 20.0923C13.902 20.6975 13.2964 21 13 21C12.7036 21 12.098 20.6975 10.8871 20.0923C9.65613 19.4772 7.9556 18.8652 5.77667 18.4811C3.33239 18.0501 2.11024 17.8347 1.55512 17.1985C1 16.5624 1 15.5435 1 13.5055V5.49574C1 3.26692 1 2.15254 1.86493 1.46627C2.72988 0.780017 3.74548 0.959057 5.77667 1.31715Z" stroke="var(--stroke-0, #99E39E)" stroke-width="2" stroke-linecap="round" stroke-linejoin="round"/>
</svg>
