<svg preserveAspectRatio="none" width="100%" height="100%" overflow="visible" style="display: block;" viewBox="0 0 12 12" fill="none" xmlns="http://www.w3.org/2000/svg">
<path id="Vector" d="M6 6C6.4955 6 6.9562 5.8015 7.8775 5.4045L8.5423 5.118C10.1808 4.41202 11 4.05902 11 3.5C11 2.94098 10.1808 2.58798 8.5423 1.88197L7.8775 1.59549C6.9562 1.1985 6.4955 1 6 1C5.5045 1 5.0438 1.1985 4.1225 1.59549L3.45768 1.88197C1.81923 2.58798 1 2.94098 1 3.5C1 4.05902 1.81923 4.41202 3.45768 5.118L4.1225 5.4045C5.0438 5.8015 5.5045 6 6 6ZM6 6V12" stroke="var(--stroke-0, #000510)" stroke-width="1.5" stroke-linejoin="round"/>
</svg>
