<svg preserveAspectRatio="none" width="100%" height="100%" overflow="visible" style="display: block;" viewBox="0 0 9 13" fill="none" xmlns="http://www.w3.org/2000/svg">
<path id="Vector" d="M7.66667 3.40614C7.66667 2.82587 7.65037 2.30429 7.18121 1.89627C7.01057 1.74787 6.78433 1.64482 6.33188 1.43874C5.73335 1.16611 5.43408 1.02981 5.13755 1.00582C4.24788 0.933872 3.76923 1.54109 3.25617 2.16425C1.99833 3.69201 1.36941 4.45587 1.13928 5.29827C0.953573 5.97814 0.953573 6.68907 1.13928 7.36881C1.47493 8.59747 2.53536 9.62734 3.32028 10.5808C3.81505 11.1817 4.28769 11.73 5.13755 11.6613C5.43408 11.6373 5.73335 11.5009 6.33188 11.2284C6.78433 11.0223 7.01057 10.9192 7.18121 10.7708C7.65037 10.3628 7.66667 9.84134 7.66667 9.26094V3.40614Z" stroke="var(--stroke-0, #99E39E)" stroke-width="2"/>
</svg>
