<svg preserveAspectRatio="none" width="100%" height="100%" overflow="visible" style="display: block;" viewBox="0 0 26 21" fill="none" xmlns="http://www.w3.org/2000/svg">
<path id="Vector" d="M22.2506 4.83998C22.1771 4.91832 22.0851 4.97926 21.984 5.01408C21.8828 5.0576 21.7725 5.07501 21.6622 5.07501H0.835479C0.0998792 5.07501 -0.277116 4.20451 0.237804 3.68221L3.65835 0.24374C3.73191 0.165395 3.82386 0.104461 3.9342 0.060936C4.03534 0.017411 4.14568 0 4.25602 0H25.1655C25.9102 0 26.2781 0.879205 25.7539 1.4015L22.2506 4.83998ZM22.2506 20.213C22.0943 20.361 21.8828 20.448 21.6622 20.448H0.835479C0.0998792 20.448 -0.277116 19.5949 0.237804 19.0901L3.65835 15.7299C3.73191 15.6516 3.83305 15.5906 3.9342 15.5558C4.03534 15.5123 4.14568 15.4949 4.25602 15.4949H25.1655C25.9102 15.4949 26.2781 16.3567 25.7539 16.8616L22.2506 20.213ZM22.2506 7.98248C22.0943 7.83449 21.8828 7.74744 21.6622 7.74744H0.835479C0.0998792 7.74744 -0.277116 8.60053 0.237804 9.10542L3.65835 12.4656C3.73191 12.5439 3.83305 12.6048 3.9342 12.6397C4.03534 12.6832 4.14568 12.7006 4.25602 12.7006H25.1655C25.9102 12.7006 26.2781 11.8388 25.7539 11.3339L22.2506 7.98248Z" fill="url(#paint0_linear_2011_1192)"/>
<defs>
<linearGradient id="paint0_linear_2011_1192" x1="1.58985" y1="20.7032" x2="23.1283" y2="-1.44662" gradientUnits="userSpaceOnUse">
<stop stop-color="#CF41E8"/>
<stop offset="1" stop-color="#10F2B0"/>
</linearGradient>
</defs>
</svg>
