<svg preserveAspectRatio="none" width="100%" height="100%" overflow="visible" style="display: block;" viewBox="0 0 32 32" fill="none" xmlns="http://www.w3.org/2000/svg">
<path id="Vector" fill-rule="evenodd" clip-rule="evenodd" d="M31.9787 15.9787C31.9787 24.8036 24.8201 31.9574 15.9894 31.9574C7.15867 31.9574 0 24.8036 0 15.9787C0 7.15391 7.15867 0 15.9894 0C24.8201 0 31.9787 7.15391 31.9787 15.9787ZM11.4584 22.3374H8.35534C7.70329 22.3374 7.38121 22.3374 7.18482 22.2119C6.9727 22.0745 6.84308 21.8468 6.82737 21.5955C6.81557 21.364 6.97664 21.0813 7.29873 20.5161L14.9606 7.01989C15.2867 6.44679 15.4516 6.16023 15.6598 6.05425C15.8837 5.94043 16.1508 5.94043 16.3747 6.05425C16.5829 6.16023 16.7479 6.44679 17.0739 7.01989L18.649 9.76764L18.657 9.78166C19.0091 10.3965 19.1877 10.7083 19.2657 11.0355C19.3521 11.3927 19.3521 11.7696 19.2657 12.1268C19.1871 12.4565 19.0104 12.7705 18.6529 13.3947L14.6283 20.5043L14.6179 20.5225C14.2634 21.1424 14.0838 21.4566 13.8349 21.6936C13.5638 21.9528 13.2378 22.1411 12.8804 22.2472C12.5543 22.3374 12.189 22.3374 11.4584 22.3374ZM19.2947 22.3374H23.7411C24.3971 22.3374 24.7271 22.3374 24.9236 22.2081C25.1356 22.0706 25.2691 21.8389 25.2811 21.5879C25.2923 21.3638 25.1348 21.0921 24.8261 20.5597C24.8154 20.5416 24.8048 20.5231 24.7939 20.5044L22.5667 16.6968L22.5414 16.6539C22.2284 16.125 22.0704 15.858 21.8675 15.7547C21.6438 15.6409 21.3804 15.6409 21.1566 15.7547C20.9523 15.8607 20.7874 16.1394 20.4613 16.7007L18.242 20.5083L18.2344 20.5214C17.9096 21.0819 17.7472 21.3619 17.7589 21.5917C17.7746 21.843 17.9042 22.0745 18.1163 22.2119C18.3088 22.3374 18.6388 22.3374 19.2947 22.3374Z" fill="var(--fill-0, #E84142)"/>
</svg>
