<svg preserveAspectRatio="none" width="100%" height="100%" overflow="visible" style="display: block;" viewBox="0 0 18 25" fill="none" xmlns="http://www.w3.org/2000/svg">
<path id="Vector" d="M16.3047 7.61477C16.0993 4.98121 13.8403 4.05906 10.9812 3.75705L11.0456 0.108725L8.82685 0.072484L8.76241 3.62416C8.17852 3.61208 7.58255 3.61611 6.98658 3.61611L7.05101 0.0402685L4.83221 0L4.76778 3.64832C4.28859 3.64832 3.81342 3.65235 3.35436 3.64027V3.62819L0.289933 3.57584L0.249665 5.94765C0.249665 5.94765 1.89262 5.94362 1.86443 5.97584C2.76242 5.99195 3.04832 6.51946 3.12483 6.97047L3.05235 11.1262C3.11275 11.1262 3.19329 11.1302 3.2859 11.1463L3.05235 11.1423L2.95168 16.9651C2.90738 17.247 2.73423 17.694 2.10201 17.6859C2.1302 17.7101 0.487247 17.6577 0.487247 17.6577L0 20.2993L2.89127 20.3517C3.42685 20.3638 3.95839 20.3799 4.47785 20.3919L4.41342 24.0805L6.63221 24.1168L6.69664 20.4685C7.3047 20.4886 7.89664 20.5047 8.47248 20.5168L8.40805 24.149L10.6268 24.1852L10.6913 20.5047C14.4282 20.3557 17.0577 19.4617 17.4443 15.9584C17.7544 13.1396 16.4497 11.855 14.3396 11.3114C15.6362 10.6832 16.4617 9.54362 16.3047 7.61477ZM13.0591 15.451C13.0148 18.2094 8.2953 17.8107 6.78926 17.7866L6.87785 12.898C8.38389 12.9221 13.1114 12.5718 13.0591 15.451ZM12.149 8.53289C12.1047 11.0416 8.17047 10.6792 6.91812 10.6591L6.99463 6.2255C8.24698 6.24564 12.1933 5.91544 12.149 8.53289Z" fill="var(--fill-0, white)"/>
</svg>
