<svg preserveAspectRatio="none" width="100%" height="100%" overflow="visible" style="display: block;" viewBox="0 0 20 17" fill="none" xmlns="http://www.w3.org/2000/svg">
<path id="Vector" d="M4.23433 1C2.60404 1 1.7889 1 1.32795 1.49503C0.867011 1.99006 0.968111 2.7569 1.17033 4.2906C1.22938 4.7385 1.3276 4.9928 1.62734 5.3402C2.59564 6.4627 4.36901 8.4592 6.85746 10.2744C7.08486 10.4402 7.23409 10.7113 7.25927 11.0112C7.34268 12.0054 7.42401 12.9059 7.5007 13.71C7.62524 15.0158 7.68751 15.6687 8.1633 15.9159C8.639 16.163 9.2333 15.8467 10.4219 15.2141L11.4884 14.6465C11.9287 14.4122 12.1489 14.295 12.2852 14.0974C12.4216 13.8998 12.4494 13.6615 12.5051 13.1851C12.577 12.5699 12.6529 11.8503 12.7307 11.0112C12.7583 10.714 12.907 10.446 13.1326 10.2816C15.6261 8.4642 17.403 6.4641 18.3726 5.3402C18.6724 4.9928 18.7706 4.7385 18.8297 4.2906C19.0319 2.7569 19.133 1.99006 18.672 1.49503C18.2111 1 17.396 1 15.7657 1" stroke="var(--stroke-0, #99E39E)" stroke-width="1.5" stroke-linecap="round" stroke-linejoin="round"/>
</svg>
