<svg preserveAspectRatio="none" width="100%" height="100%" overflow="visible" style="display: block;" viewBox="0 0 12 12" fill="none" xmlns="http://www.w3.org/2000/svg">
<path id="Vector" d="M7.1831 11C9.0708 11 10.0146 11 10.6241 10.155C10.6469 10.1234 10.6848 10.0667 10.7052 10.0336C11.2527 9.1471 10.9705 8.466 10.4063 7.10378C9.8946 5.86853 9.1447 4.74615 8.1993 3.80073C7.2538 2.85531 6.1315 2.10536 4.8962 1.5937C3.534 1.02946 2.8529 0.747331 1.9664 1.29477C1.9333 1.31523 1.8766 1.35309 1.845 1.37587C1 1.9854 1 2.92922 1 4.81686V6.92748C1 8.8473 1 9.8072 1.5964 10.4036C2.1928 11 3.1527 11 5.0725 11H7.1831Z" stroke="var(--stroke-0, #99E39E)" stroke-width="1.5"/>
</svg>
