<svg preserveAspectRatio="none" width="100%" height="100%" overflow="visible" style="display: block;" viewBox="0 0 48 46" fill="none" xmlns="http://www.w3.org/2000/svg">
<g id="Group 84">
<path id="Vector" d="M24.0016 9.62182C28.57 9.62182 32.2735 7.4679 32.2735 4.81091C32.2735 2.15391 28.57 0 24.0016 0C19.4331 0 15.7297 2.15391 15.7297 4.81091C15.7297 7.4679 19.4331 9.62182 24.0016 9.62182Z" fill="var(--fill-0, #E6007A)"/>
<path id="Vector_2" d="M24.0016 45.8712C28.57 45.8712 32.2735 43.7173 32.2735 41.0603C32.2735 38.4033 28.57 36.2494 24.0016 36.2494C19.4331 36.2494 15.7297 38.4033 15.7297 41.0603C15.7297 43.7173 19.4331 45.8712 24.0016 45.8712Z" fill="var(--fill-0, #E6007A)"/>
<path id="Vector_3" d="M12.4746 16.282C14.7588 12.3258 14.744 8.04089 12.4415 6.7115C10.139 5.3821 6.42072 7.51161 4.1365 11.4679C1.85228 15.4242 1.8671 19.709 4.16961 21.0384C6.47212 22.3678 10.1904 20.2383 12.4746 16.282Z" fill="var(--fill-0, #E6007A)"/>
<path id="Vector_4" d="M43.8613 34.4033C46.1456 30.447 46.132 26.1629 43.831 24.8344C41.5301 23.5059 37.8131 25.6361 35.5288 29.5924C33.2446 33.5487 33.2582 37.8328 35.5591 39.1613C37.8601 40.4898 41.5771 38.3596 43.8613 34.4033Z" fill="var(--fill-0, #E6007A)"/>
<path id="Vector_5" d="M12.441 39.1601C14.7435 37.8307 14.7583 33.5458 12.4741 29.5895C10.1899 25.6333 6.47157 23.5038 4.16906 24.8332C1.86655 26.1625 1.85173 30.4474 4.13595 34.4037C6.42017 38.36 10.1385 40.4895 12.441 39.1601Z" fill="var(--fill-0, #E6007A)"/>
<path id="Vector_6" d="M43.8336 21.0394C46.1345 19.7109 46.1481 15.4268 43.8639 11.4705C41.5797 7.5142 37.8626 5.38397 35.5617 6.71247C33.2607 8.04096 33.2472 12.3251 35.5314 16.2814C37.8156 20.2377 41.5326 22.3679 43.8336 21.0394Z" fill="var(--fill-0, #E6007A)"/>
</g>
</svg>
