<svg preserveAspectRatio="none" width="100%" height="100%" overflow="visible" style="display: block;" viewBox="0 0 19 18" fill="none" xmlns="http://www.w3.org/2000/svg">
<path id="Vector" d="M16.8425 10.5061C17.2774 10.3889 17.4949 10.3302 17.5807 10.218C17.6667 10.106 17.6667 9.92555 17.6667 9.5648V7.95338C17.6667 7.59263 17.6667 7.41221 17.5807 7.30013C17.4948 7.18796 17.2774 7.1293 16.8425 7.01203C15.2172 6.57371 14.1999 4.87447 14.6194 3.25977C14.7347 2.81571 14.7924 2.59368 14.7373 2.46346C14.6822 2.33323 14.5243 2.2435 14.2081 2.06401L12.7708 1.24799C12.4607 1.07187 12.3056 0.983815 12.1664 1.00256C12.0272 1.02131 11.8702 1.17799 11.556 1.49132C10.34 2.70445 8.328 2.7044 7.11195 1.49125C6.79786 1.17791 6.64082 1.02124 6.50161 1.00248C6.36241 0.983731 6.20731 1.07179 5.89711 1.24791L4.45987 2.06394C4.14378 2.24341 3.98572 2.33314 3.93065 2.46334C3.87557 2.59355 3.93322 2.81561 4.04854 3.25971C4.46781 4.87446 3.44977 6.57374 1.82418 7.01205C1.38927 7.1293 1.17181 7.18796 1.0859 7.30005C1 7.41221 1 7.59263 1 7.95338V9.5648C1 9.92555 1 10.106 1.0859 10.218C1.17179 10.3302 1.38926 10.3889 1.82418 10.5061C3.4495 10.9445 4.46673 12.6437 4.04727 14.2584C3.93191 14.7025 3.87422 14.9245 3.9293 15.0547C3.98438 15.185 4.14243 15.2747 4.45854 15.4541L5.89579 16.2702C6.20601 16.4463 6.36112 16.5344 6.50033 16.5156C6.63955 16.4969 6.79657 16.3401 7.11059 16.0268C8.32725 14.8127 10.3407 14.8126 11.5574 16.0267C11.8714 16.3401 12.0284 16.4968 12.1677 16.5155C12.3068 16.5343 12.462 16.4462 12.7722 16.2701L14.2094 15.454C14.5256 15.2746 14.6837 15.1849 14.7387 15.0546C14.7938 14.9244 14.7361 14.7024 14.6207 14.2583C14.201 12.6437 15.2174 10.9445 16.8425 10.5061Z" stroke="var(--stroke-0, #000510)" stroke-width="1.25" stroke-linecap="round"/>
</svg>
