<svg preserveAspectRatio="none" width="100%" height="100%" overflow="visible" style="display: block;" viewBox="0 0 100 92" fill="none" xmlns="http://www.w3.org/2000/svg">
<path id="Ellipse 577" d="M21.1966 89.9896C18.4828 92.7034 14.0428 92.7266 11.6885 89.6956C8.36474 85.4165 5.67664 80.6644 3.71917 75.5853C0.926493 68.3391 -0.317072 60.5882 0.068608 52.8321C0.454288 45.076 2.46066 37.4867 5.95842 30.5533C9.45619 23.6199 14.3678 17.4963 20.3766 12.5769C26.3855 7.65761 33.3583 4.05174 40.8458 1.99171C48.3333 -0.0683169 56.1693 -0.536809 63.8489 0.616426C71.5285 1.76966 78.8813 4.51904 85.4335 8.68739C90.0261 11.6091 94.154 15.1825 97.6926 19.2857C100.199 22.1921 99.2998 26.5401 96.1036 28.6647C92.9074 30.7893 88.6315 29.8704 86.0061 27.071C83.624 24.531 80.9268 22.2927 77.9734 20.4138C73.0593 17.2876 67.5447 15.2255 61.785 14.3606C56.0253 13.4957 50.1482 13.847 44.5326 15.3921C38.917 16.9371 33.6874 19.6415 29.1807 23.331C24.6741 27.0205 20.9904 31.6132 18.3671 36.8133C15.7438 42.0133 14.239 47.7053 13.9497 53.5224C13.6605 59.3395 14.5932 65.1526 16.6877 70.5873C17.9465 73.8535 19.6082 76.9395 21.6279 79.7762C23.8538 82.9026 23.9104 87.2758 21.1966 89.9896Z" fill="var(--fill-0, #99E39E)"/>
</svg>
