<svg preserveAspectRatio="none" width="100%" height="100%" overflow="visible" style="display: block;" viewBox="0 0 10 14" fill="none" xmlns="http://www.w3.org/2000/svg">
<path id="Vector" d="M9.31697 4.35129C9.19961 2.8464 7.90872 2.31946 6.27498 2.14688L6.31179 0.0621288L5.04391 0.0414194L5.00709 2.07095C4.67344 2.06405 4.33289 2.06635 3.99233 2.06635L4.02915 0.0230105L2.76127 0L2.72445 2.08476C2.45062 2.08476 2.1791 2.08706 1.91678 2.08015V2.07325L0.165676 2.04334L0.142666 3.39866C0.142666 3.39866 1.0815 3.39636 1.06539 3.41477C1.57852 3.42397 1.7419 3.72541 1.78562 3.98313L1.7442 6.35781C1.77871 6.35781 1.82474 6.36012 1.87766 6.36932L1.7442 6.36702L1.68667 9.69434C1.66136 9.85542 1.56242 10.1108 1.20115 10.1062C1.21726 10.12 0.278427 10.0901 0.278427 10.0901L0 11.5996L1.65216 11.6295C1.9582 11.6364 2.26194 11.6456 2.55877 11.6525L2.52196 13.7603L3.78984 13.781L3.82665 11.6963C4.17411 11.7078 4.51237 11.717 4.84142 11.7239L4.8046 13.7994L6.07248 13.8201L6.1093 11.717C8.24468 11.6318 9.74727 11.121 9.96817 9.11908C10.1453 7.50834 9.39981 6.77431 8.19405 6.46366C8.93499 6.1047 9.40671 5.4535 9.31697 4.35129ZM7.46232 8.82915C7.43701 10.4054 4.74017 10.1776 3.87958 10.1638L3.9302 7.37028C4.7908 7.38409 7.49223 7.18389 7.46232 8.82915ZM6.94228 4.87594C6.91697 6.30949 4.66884 6.1024 3.95321 6.09089L3.99693 3.55743C4.71256 3.56894 6.96759 3.38025 6.94228 4.87594Z" fill="var(--fill-0, white)"/>
</svg>
