<svg preserveAspectRatio="none" width="100%" height="100%" overflow="visible" style="display: block;" viewBox="0 0 20 28" fill="none" xmlns="http://www.w3.org/2000/svg">
<path id="Vector" d="M18.6339 8.70259C18.3992 5.69281 15.8174 4.63893 12.55 4.29377L12.6236 0.124258L10.0878 0.0828388L10.0142 4.1419C9.34688 4.12809 8.66577 4.1327 7.98466 4.1327L8.05829 0.0460211L5.52253 0L5.4489 4.16951C4.90124 4.16951 4.3582 4.17411 3.83356 4.16031V4.1465L0.331352 4.08667L0.285331 6.79732C0.285331 6.79732 2.16299 6.79271 2.13078 6.82953C3.15705 6.84794 3.4838 7.45082 3.57124 7.96625L3.4884 12.7156C3.55743 12.7156 3.64947 12.7202 3.75532 12.7386L3.4884 12.734L3.37335 19.3887C3.32272 19.7108 3.12483 20.2217 2.4023 20.2125C2.43452 20.2401 0.556854 20.1803 0.556854 20.1803L0 23.1992L3.30431 23.2591C3.91639 23.2729 4.52387 23.2913 5.11755 23.3051L5.04391 27.5206L7.57967 27.562L7.65331 23.3925C8.34822 23.4155 9.02473 23.4339 9.68284 23.4478L9.6092 27.5988L12.145 27.6403L12.2186 23.4339C16.4894 23.2637 19.4945 22.242 19.9363 18.2382C20.2907 15.0167 18.7996 13.5486 16.3881 12.9273C17.87 12.2094 18.8134 10.907 18.6339 8.70259ZM14.9246 17.6583C14.874 20.8107 9.48034 20.3551 7.75915 20.3275L7.8604 14.7406C9.58159 14.7682 14.9845 14.3678 14.9246 17.6583ZM13.8846 9.75187C13.8339 12.619 9.33768 12.2048 7.90642 12.1818L7.99386 7.11486C9.42512 7.13787 13.9352 6.7605 13.8846 9.75187Z" fill="var(--fill-0, white)"/>
</svg>
