<svg preserveAspectRatio="none" width="100%" height="100%" overflow="visible" style="display: block;" viewBox="0 0 9 12" fill="none" xmlns="http://www.w3.org/2000/svg">
<path id="Vector" d="M7.76414 3.62608C7.66635 2.372 6.5906 1.93289 5.22915 1.78907L5.25983 0.051774L4.20326 0.0345162L4.17258 1.72579C3.89453 1.72004 3.61074 1.72196 3.32694 1.72196L3.35762 0.0191755L2.30105 0L2.27037 1.7373C2.04219 1.7373 1.81592 1.73921 1.59732 1.73346V1.72771L0.138064 1.70278L0.118888 2.83221C0.118888 2.83221 0.901246 2.8303 0.887823 2.84564C1.31544 2.85331 1.45158 3.10451 1.48801 3.31927L1.4535 5.29818C1.48226 5.29818 1.52061 5.3001 1.56472 5.30777L1.4535 5.30585L1.40556 8.07862C1.38447 8.21285 1.30201 8.42569 1.00096 8.42186C1.01438 8.43336 0.232023 8.40844 0.232023 8.40844L0 9.66635L1.3768 9.69127C1.63183 9.69703 1.88495 9.7047 2.13231 9.71045L2.10163 11.4669L3.1582 11.4842L3.18888 9.74688C3.47843 9.75647 3.76031 9.76414 4.03452 9.76989L4.00383 11.4995L5.0604 11.5168L5.09108 9.76414C6.87057 9.69319 8.12272 9.2675 8.30681 7.59923C8.45446 6.25695 7.83317 5.64525 6.82838 5.38639C7.44583 5.08725 7.83893 4.54458 7.76414 3.62608ZM6.2186 7.35762C6.19751 8.67114 3.95014 8.4813 3.23298 8.4698L3.27517 6.1419C3.99233 6.1534 6.24353 5.98658 6.2186 7.35762ZM5.78523 4.06328C5.76414 5.25791 3.8907 5.08533 3.29434 5.07574L3.33078 2.96453C3.92713 2.97411 5.80633 2.81687 5.78523 4.06328Z" fill="var(--fill-0, white)"/>
</svg>
