<svg preserveAspectRatio="none" width="100%" height="100%" overflow="visible" style="display: block;" viewBox="0 0 20 20" fill="none" xmlns="http://www.w3.org/2000/svg">
<g id="Group-46">
<g id="Group-45">
<path id="Oval" d="M10 20C15.5228 20 20 15.5228 20 10C20 4.47715 15.5228 0 10 0C4.47715 0 0 4.47715 0 10C0 15.5228 4.47715 20 10 20Z" fill="var(--fill-0, #627EEA)"/>
<path id="Path" d="M10.3116 2.49844V8.04246L14.9972 10.1365L10.3116 2.49844Z" fill="var(--fill-0, white)" fill-opacity="0.6"/>
<path id="Path_1_" d="M10.3117 2.49844L5.6261 10.1365L10.3117 8.04246V2.49844Z" fill="var(--fill-0, white)"/>
<path id="Path_2_" d="M10.3116 13.7288V17.4959L15 11.0087L10.3116 13.7288Z" fill="var(--fill-0, white)" fill-opacity="0.6"/>
<path id="Path_3_" d="M10.3117 17.4959V13.7288L5.6261 11.0087L10.3117 17.4959Z" fill="var(--fill-0, white)"/>
<path id="Path_4_" d="M10.3116 12.8568L14.9972 10.1367L10.3116 8.04269V12.8568Z" fill="var(--fill-0, white)" fill-opacity="0.2"/>
</g>
<path id="Path_5_" d="M5.6261 10.1367L10.3117 12.8568V8.04269L5.6261 10.1367Z" fill="var(--fill-0, white)" fill-opacity="0.6"/>
</g>
</svg>
