<svg preserveAspectRatio="none" width="100%" height="100%" overflow="visible" style="display: block;" viewBox="0 0 456 456" fill="none" xmlns="http://www.w3.org/2000/svg">
<g id="Group 78">
<g id="Vector">
<path d="M70.8321 93.8126C93.2495 66.1221 121.671 43.4189 154.136 27.2686C186.601 11.1184 222.337 1.90553 258.88 0.265525C295.422 -1.37448 331.901 4.59739 365.8 17.7692C399.7 30.9411 430.213 50.9994 455.235 76.5607L371.723 151.565C358.026 137.572 341.323 126.592 322.766 119.382C304.21 112.172 284.241 108.903 264.238 109.801C244.234 110.698 224.673 115.742 206.901 124.582C189.13 133.423 173.572 145.851 161.301 161.008L70.8321 93.8126Z" fill="white"/>
<path d="M455.638 368.756C432.173 395.639 402.9 417.326 369.837 432.323C336.775 447.32 300.709 455.269 264.128 455.622C227.548 455.974 191.323 448.723 157.951 434.367C124.58 420.011 94.8569 398.892 70.8321 372.467L157.165 300.453C170.317 314.918 186.587 326.478 204.854 334.337C223.122 342.195 242.952 346.165 262.976 345.972C283 345.779 302.742 341.427 320.841 333.218C338.939 325.009 354.963 313.137 367.808 298.422L455.638 368.756Z" fill="white"/>
</g>
<path id="Polygon 1" d="M208.008 232.446L69.3389 341.551L69.3389 123.341L208.008 232.446Z" fill="var(--fill-0, white)"/>
<path id="Polygon 2" d="M138.669 232.446L8.16176e-06 341.551L1.81198e-05 123.341L138.669 232.446Z" fill="var(--fill-0, white)"/>
</g>
</svg>
