<svg preserveAspectRatio="none" width="100%" height="100%" overflow="visible" style="display: block;" viewBox="0 0 28 28" fill="none" xmlns="http://www.w3.org/2000/svg">
<g id="Group 78">
<g id="Vector">
<path d="M4.35267 5.76505C5.73028 4.06339 7.47686 2.66821 9.47193 1.67573C11.467 0.683256 13.6631 0.1171 15.9087 0.0163173C18.1544 -0.0844656 20.3961 0.282523 22.4793 1.09197C24.5625 1.90142 26.4377 3.13406 27.9753 4.70488L22.8433 9.31408C22.0015 8.45422 20.9751 7.77947 19.8347 7.33638C18.6944 6.89329 17.4673 6.6924 16.238 6.74757C15.0087 6.80274 13.8066 7.11265 12.7145 7.65593C11.6224 8.19921 10.6663 8.96293 9.91222 9.89442L4.35267 5.76505Z" fill="white"/>
<path d="M28.0001 22.6611C26.5581 24.3131 24.7592 25.6459 22.7274 26.5675C20.6956 27.4891 18.4793 27.9776 16.2313 27.9992C13.9833 28.0209 11.7572 27.5753 9.70639 26.6931C7.65563 25.8109 5.82907 24.513 4.35267 22.8892L9.6581 18.4637C10.4663 19.3526 11.4661 20.063 12.5887 20.5459C13.7113 21.0289 14.9299 21.2728 16.1604 21.261C17.391 21.2491 18.6042 20.9817 19.7164 20.4772C20.8286 19.9727 21.8133 19.2432 22.6027 18.3389L28.0001 22.6611Z" fill="white"/>
</g>
<path id="Polygon 1" d="M12.7825 14.2845L4.2609 20.9893L4.2609 7.57969L12.7825 14.2845Z" fill="var(--fill-0, #99E39E)"/>
<path id="Polygon 2" d="M8.52145 14.2845L-0.000165419 20.9893L-0.000164807 7.57969L8.52145 14.2845Z" fill="var(--fill-0, #99E39E)"/>
</g>
</svg>
