<svg preserveAspectRatio="none" width="100%" height="100%" overflow="visible" style="display: block;" viewBox="0 0 49 47" fill="none" xmlns="http://www.w3.org/2000/svg">
<g id="Group 84">
<path id="Vector" d="M24.5016 9.82233C29.1652 9.82233 32.9458 7.62353 32.9458 4.91119C32.9458 2.19884 29.1652 5.34058e-05 24.5016 5.34058e-05C19.838 5.34058e-05 16.0574 2.19884 16.0574 4.91119C16.0574 7.62353 19.838 9.82233 24.5016 9.82233Z" fill="var(--fill-0, #E6007A)"/>
<path id="Vector_2" d="M24.5016 46.8269C29.1652 46.8269 32.9458 44.6281 32.9458 41.9158C32.9458 39.2034 29.1652 37.0046 24.5016 37.0046C19.838 37.0046 16.0574 39.2034 16.0574 41.9158C16.0574 44.6281 19.838 46.8269 24.5016 46.8269Z" fill="var(--fill-0, #E6007A)"/>
<path id="Vector_3" d="M12.7345 16.6213C15.0663 12.5826 15.0512 8.20846 12.7007 6.85137C10.3502 5.49428 6.55449 7.66815 4.22268 11.7068C1.89087 15.7455 1.906 20.1197 4.25648 21.4768C6.60696 22.8339 10.4027 20.66 12.7345 16.6213Z" fill="var(--fill-0, #E6007A)"/>
<path id="Vector_4" d="M44.7751 35.1201C47.1069 31.0814 47.0931 26.708 44.7442 25.3518C42.3953 23.9956 38.6008 26.1703 36.269 30.209C33.9372 34.2477 33.9511 38.6211 36.2999 39.9772C38.6488 41.3334 42.4433 39.1588 44.7751 35.1201Z" fill="var(--fill-0, #E6007A)"/>
<path id="Vector_5" d="M12.7002 39.976C15.0506 38.6189 15.0658 34.2447 12.734 30.206C10.4021 26.1673 6.6064 23.9935 4.25592 25.3506C1.90544 26.7077 1.89031 31.0818 4.22212 35.1205C6.55393 39.1592 10.3497 41.3331 12.7002 39.976Z" fill="var(--fill-0, #E6007A)"/>
<path id="Vector_6" d="M44.7468 21.4778C47.0957 20.1216 47.1095 15.7482 44.7777 11.7095C42.4459 7.6708 38.6515 5.49619 36.3026 6.85236C33.9537 8.20853 33.9398 12.5819 36.2716 16.6206C38.6034 20.6593 42.3979 22.8339 44.7468 21.4778Z" fill="var(--fill-0, #E6007A)"/>
</g>
</svg>
