<svg preserveAspectRatio="none" width="100%" height="100%" overflow="visible" style="display: block;" viewBox="0 0 18 18" fill="none" xmlns="http://www.w3.org/2000/svg">
<path id="Vector" d="M7.3013 4.98949L8.7869 3.50392C10.4596 1.8312 12.6495 1.13737 14.9671 1.02399C15.8686 0.979894 16.3193 0.957844 16.6807 1.31928C17.0422 1.68071 17.0201 2.13143 16.976 3.03289C16.8626 5.3505 16.1688 7.54042 14.4961 9.2131L13.0105 10.6987C11.7871 11.9221 11.4393 12.27 11.6961 13.597C11.9496 14.6107 12.1949 15.5923 11.4578 16.3294C10.5637 17.2235 9.7481 17.2235 8.854 16.3294L1.67058 9.146C0.776489 8.25188 0.776459 7.4363 1.67058 6.54219C2.40767 5.80509 3.38929 6.05044 4.40297 6.30389C5.73 6.56073 6.0779 6.21289 7.3013 4.98949Z" stroke="var(--stroke-0, #99E39E)" stroke-width="1.5" stroke-linejoin="round"/>
</svg>
