<svg preserveAspectRatio="none" width="100%" height="100%" overflow="visible" style="display: block;" viewBox="0 0 49 49" fill="none" xmlns="http://www.w3.org/2000/svg">
<path id="Vector" fill-rule="evenodd" clip-rule="evenodd" d="M48.9674 24.4674C48.9674 37.9805 38.0058 48.9348 24.4837 48.9348C10.9617 48.9348 0 37.9805 0 24.4674C0 10.9544 10.9617 0 24.4837 0C38.0058 0 48.9674 10.9544 48.9674 24.4674ZM17.5457 34.2042H12.7941C11.7957 34.2042 11.3025 34.2042 11.0018 34.012C10.6769 33.8015 10.4785 33.4529 10.4544 33.0682C10.4363 32.7137 10.683 32.2808 11.1762 31.4152L22.9085 10.7492C23.4077 9.87164 23.6603 9.43286 23.9791 9.27058C24.3219 9.09628 24.7309 9.09628 25.0738 9.27058C25.3925 9.43286 25.6452 9.87164 26.1444 10.7492L28.5563 14.9567L28.5686 14.9782C29.1078 15.9196 29.3812 16.397 29.5006 16.8981C29.6329 17.4451 29.6329 18.0221 29.5006 18.5691C29.3803 19.074 29.1096 19.5549 28.5623 20.5106L22.3996 31.3972L22.3836 31.4251C21.8409 32.3743 21.5658 32.8554 21.1846 33.2183C20.7696 33.6152 20.2704 33.9035 19.723 34.0661C19.2238 34.2042 18.6645 34.2042 17.5457 34.2042ZM29.5451 34.2042H36.3536C37.358 34.2042 37.8633 34.2042 38.1643 34.0061C38.489 33.7957 38.6934 33.4409 38.7116 33.0564C38.7289 32.7134 38.4877 32.2973 38.0149 31.4821C37.9986 31.4543 37.9823 31.4261 37.9657 31.3973L34.5553 25.567L34.5165 25.5013C34.0372 24.6915 33.7953 24.2825 33.4846 24.1244C33.142 23.9501 32.7387 23.9501 32.396 24.1244C32.0833 24.2867 31.8307 24.7135 31.3314 25.573L27.9331 31.4034L27.9215 31.4234C27.424 32.2816 27.1754 32.7104 27.1933 33.0623C27.2174 33.4471 27.4159 33.8015 27.7407 34.012C28.0354 34.2042 28.5406 34.2042 29.5451 34.2042Z" fill="var(--fill-0, #E84142)"/>
</svg>
