<svg width="130" height="49" viewBox="0 0 130 49" fill="none" xmlns="http://www.w3.org/2000/svg">
<rect x="0.154297" y="0.871094" width="129.231" height="48" rx="7.38462" fill="white" fill-opacity="0.1"/>
<path d="M86.6269 24.0597V26.386H85.1687V27.9115H86.6269V33.0951C86.6269 34.865 87.4276 35.573 89.442 35.573C89.796 35.573 90.1331 35.5309 90.4281 35.4803V33.9716C90.1752 33.9969 90.0151 34.0138 89.737 34.0138C88.8351 34.0138 88.439 33.5923 88.439 32.6315V27.9115H90.4281V26.386H88.439V24.0597H86.6269Z" fill="white"/>
<path d="M95.5597 35.6995C98.24 35.6995 99.8835 33.9042 99.8835 30.9289C99.8835 27.9705 98.2315 26.1668 95.5597 26.1668C92.8794 26.1668 91.2275 27.9705 91.2275 30.9289C91.2275 33.9042 92.871 35.6995 95.5597 35.6995ZM95.5597 34.0896C93.9836 34.0896 93.0986 32.9349 93.0986 30.9289C93.0986 28.9398 93.9836 27.7767 95.5597 27.7767C97.1274 27.7767 98.0208 28.9398 98.0208 30.9289C98.0208 32.9265 97.1274 34.0896 95.5597 34.0896Z" fill="white"/>
<path d="M101.29 35.5225H103.102V30.103C103.102 28.8134 104.071 27.9453 105.445 27.9453C105.765 27.9453 106.305 28.0043 106.456 28.0548V26.268C106.263 26.2174 105.917 26.1921 105.647 26.1921C104.45 26.1921 103.431 26.8496 103.169 27.7514H103.034V26.3438H101.29V35.5225Z" fill="white"/>
<path d="M110.956 27.7093C112.296 27.7093 113.173 28.6448 113.215 30.0861H108.579C108.68 28.6533 109.616 27.7093 110.956 27.7093ZM113.206 33.0445C112.869 33.7609 112.119 34.1571 111.023 34.1571C109.574 34.1571 108.638 33.1372 108.579 31.5274V31.4262H115.061V30.7941C115.061 27.9115 113.518 26.1668 110.964 26.1668C108.377 26.1668 106.733 28.0295 106.733 30.9627C106.733 33.8958 108.343 35.6995 110.973 35.6995C113.071 35.6995 114.538 34.688 114.951 33.0445H113.206Z" fill="white"/>
<path d="M74.7432 32.1329C74.883 34.3868 76.7612 35.8282 79.5567 35.8282C82.5443 35.8282 84.4138 34.3169 84.4138 31.9058C84.4138 30.0101 83.348 28.9618 80.7622 28.359L79.3732 28.0183C77.7309 27.634 77.067 27.1186 77.067 26.2188C77.067 25.0831 78.0978 24.3405 79.644 24.3405C81.1117 24.3405 82.125 25.0656 82.3085 26.2275H84.2129C84.0993 24.1047 82.2299 22.6108 79.6702 22.6108C76.9184 22.6108 75.0839 24.1047 75.0839 26.3498C75.0839 28.2018 76.1235 29.3025 78.4035 29.8354L80.0284 30.2285C81.697 30.6216 82.4308 31.1982 82.4308 32.1592C82.4308 33.2773 81.2776 34.0898 79.7052 34.0898C78.0192 34.0898 76.8486 33.3298 76.6826 32.1329H74.7432Z" fill="white"/>
<path d="M55.9715 26.1921C54.724 26.1921 53.6452 26.8158 53.0889 27.861H52.9541V26.3438H51.2094V38.5736H53.0215V34.1318H53.1648C53.6452 35.101 54.6819 35.6742 55.9883 35.6742C58.3061 35.6742 59.7811 33.8452 59.7811 30.9289C59.7811 28.0127 58.3061 26.1921 55.9715 26.1921ZM55.4573 34.0475C53.9402 34.0475 52.9878 32.8506 52.9878 30.9374C52.9878 29.0157 53.9402 27.8188 55.4657 27.8188C56.9997 27.8188 57.9184 28.9904 57.9184 30.9289C57.9184 32.8759 56.9997 34.0475 55.4573 34.0475Z" fill="white"/>
<path d="M66.122 26.1921C64.8746 26.1921 63.7958 26.8158 63.2395 27.861H63.1046V26.3438H61.36V38.5736H63.1721V34.1318H63.3154C63.7958 35.101 64.8325 35.6742 66.1389 35.6742C68.4567 35.6742 69.9317 33.8452 69.9317 30.9289C69.9317 28.0127 68.4567 26.1921 66.122 26.1921ZM65.6079 34.0475C64.0908 34.0475 63.1384 32.8506 63.1384 30.9374C63.1384 29.0157 64.0908 27.8188 65.6163 27.8188C67.1503 27.8188 68.069 28.9904 68.069 30.9289C68.069 32.8759 67.1503 34.0475 65.6079 34.0475Z" fill="white"/>
<path d="M47.9581 35.5225H50.0372L45.4858 22.9166H43.3805L38.8291 35.5225H40.8384L42.0002 32.1766H46.805L47.9581 35.5225ZM44.3327 25.2054H44.4812L46.307 30.5343H42.4982L44.3327 25.2054Z" fill="white"/>
<path d="M40.0469 13.4086V19.4897H42.2425C44.0546 19.4897 45.104 18.373 45.104 16.4302C45.104 14.5169 44.0462 13.4086 42.2425 13.4086H40.0469ZM40.9909 14.2683H42.1371C43.3972 14.2683 44.1431 15.069 44.1431 16.4428C44.1431 17.8378 43.4098 18.63 42.1371 18.63H40.9909V14.2683Z" fill="white"/>
<path d="M48.3177 19.5782C49.6579 19.5782 50.4797 18.6806 50.4797 17.193C50.4797 15.7138 49.6537 14.8119 48.3177 14.8119C46.9776 14.8119 46.1516 15.7138 46.1516 17.193C46.1516 18.6806 46.9734 19.5782 48.3177 19.5782ZM48.3177 18.7733C47.5297 18.7733 47.0872 18.196 47.0872 17.193C47.0872 16.1984 47.5297 15.6168 48.3177 15.6168C49.1016 15.6168 49.5483 16.1984 49.5483 17.193C49.5483 18.1918 49.1016 18.7733 48.3177 18.7733Z" fill="white"/>
<path d="M57.4778 14.9004H56.5718L55.7542 18.4025H55.6826L54.7386 14.9004H53.8704L52.9264 18.4025H52.859L52.0372 14.9004H51.1185L52.3828 19.4897H53.3142L54.2581 16.1099H54.3298L55.278 19.4897H56.2178L57.4778 14.9004Z" fill="white"/>
<path d="M58.5213 19.4897H59.4273V16.8053C59.4273 16.0888 59.853 15.6421 60.523 15.6421C61.1931 15.6421 61.5134 16.0088 61.5134 16.7463V19.4897H62.4194V16.5187C62.4194 15.4272 61.8547 14.8119 60.8307 14.8119C60.1395 14.8119 59.6844 15.1196 59.461 15.6295H59.3936V14.9004H58.5213V19.4897Z" fill="white"/>
<path d="M63.8464 19.4897H64.7525V13.1094H63.8464V19.4897Z" fill="white"/>
<path d="M68.1601 19.5782C69.5002 19.5782 70.322 18.6806 70.322 17.193C70.322 15.7138 69.496 14.8119 68.1601 14.8119C66.82 14.8119 65.994 15.7138 65.994 17.193C65.994 18.6806 66.8157 19.5782 68.1601 19.5782ZM68.1601 18.7733C67.372 18.7733 66.9295 18.196 66.9295 17.193C66.9295 16.1984 67.372 15.6168 68.1601 15.6168C68.9439 15.6168 69.3906 16.1984 69.3906 17.193C69.3906 18.1918 68.9439 18.7733 68.1601 18.7733Z" fill="white"/>
<path d="M73.0216 18.8028C72.5286 18.8028 72.1704 18.5626 72.1704 18.1496C72.1704 17.745 72.4569 17.5301 73.0891 17.488L74.2101 17.4163V17.7998C74.2101 18.3687 73.7043 18.8028 73.0216 18.8028ZM72.7899 19.5656C73.3925 19.5656 73.894 19.3043 74.1679 18.845H74.2396V19.4897H75.1119V16.3543C75.1119 15.3851 74.4629 14.8119 73.3124 14.8119C72.2715 14.8119 71.5298 15.3176 71.4371 16.1057H72.3136C72.4148 15.7812 72.7646 15.5958 73.2703 15.5958C73.8898 15.5958 74.2101 15.8697 74.2101 16.3543V16.7505L72.9669 16.8221C71.8754 16.8896 71.2601 17.3658 71.2601 18.1918C71.2601 19.0304 71.9049 19.5656 72.7899 19.5656Z" fill="white"/>
<path d="M78.1866 19.5656C78.8188 19.5656 79.354 19.2664 79.6279 18.7649H79.6995V19.4897H80.5677V13.1094H79.6616V15.6295H79.5942C79.3455 15.1238 78.8145 14.8246 78.1866 14.8246C77.0277 14.8246 76.2818 15.7433 76.2818 17.193C76.2818 18.6469 77.0193 19.5656 78.1866 19.5656ZM78.4437 15.6379C79.2022 15.6379 79.6785 16.2406 79.6785 17.1972C79.6785 18.158 79.2065 18.7522 78.4437 18.7522C77.6767 18.7522 77.2173 18.1665 77.2173 17.193C77.2173 16.2279 77.6809 15.6379 78.4437 15.6379Z" fill="white"/>
<path d="M86.4432 19.5782C87.7833 19.5782 88.6051 18.6806 88.6051 17.193C88.6051 15.7138 87.7791 14.8119 86.4432 14.8119C85.103 14.8119 84.277 15.7138 84.277 17.193C84.277 18.6806 85.0988 19.5782 86.4432 19.5782ZM86.4432 18.7733C85.6551 18.7733 85.2126 18.196 85.2126 17.193C85.2126 16.1984 85.6551 15.6168 86.4432 15.6168C87.227 15.6168 87.6737 16.1984 87.6737 17.193C87.6737 18.1918 87.227 18.7733 86.4432 18.7733Z" fill="white"/>
<path d="M89.8044 19.4897H90.7105V16.8053C90.7105 16.0888 91.1361 15.6421 91.8062 15.6421C92.4763 15.6421 92.7966 16.0088 92.7966 16.7463V19.4897H93.7026V16.5187C93.7026 15.4272 93.1379 14.8119 92.1138 14.8119C91.4227 14.8119 90.9676 15.1196 90.7442 15.6295H90.6768V14.9004H89.8044V19.4897Z" fill="white"/>
<path d="M97.8756 13.7584V14.9215H97.1465V15.6843H97.8756V18.276C97.8756 19.161 98.2759 19.515 99.2831 19.515C99.4601 19.515 99.6287 19.494 99.7762 19.4687V18.7143C99.6498 18.727 99.5697 18.7354 99.4306 18.7354C98.9797 18.7354 98.7816 18.5247 98.7816 18.0443V15.6843H99.7762V14.9215H98.7816V13.7584H97.8756Z" fill="white"/>
<path d="M100.992 19.4897H101.898V16.8095C101.898 16.1141 102.311 15.6463 103.053 15.6463C103.694 15.6463 104.035 16.0172 104.035 16.7505V19.4897H104.941V16.5271C104.941 15.4356 104.339 14.8161 103.361 14.8161C102.67 14.8161 102.185 15.1238 101.962 15.6379H101.89V13.1094H100.992V19.4897Z" fill="white"/>
<path d="M108.21 15.5831C108.88 15.5831 109.318 16.0509 109.339 16.7716H107.021C107.072 16.0551 107.54 15.5831 108.21 15.5831ZM109.335 18.2508C109.166 18.609 108.791 18.807 108.243 18.807C107.519 18.807 107.051 18.2971 107.021 17.4922V17.4416H110.262V17.1255C110.262 15.6843 109.491 14.8119 108.214 14.8119C106.92 14.8119 106.098 15.7433 106.098 17.2098C106.098 18.6764 106.903 19.5782 108.218 19.5782C109.267 19.5782 110.001 19.0725 110.207 18.2508H109.335Z" fill="white"/>
<path d="M28.9966 25.1765C29.0186 23.4696 29.9353 21.8546 31.3895 20.9606C30.4721 19.6504 28.9355 18.8197 27.3369 18.7697C25.6318 18.5907 23.9788 19.79 23.11 19.79C22.2243 19.79 20.8865 18.7874 19.4459 18.8171C17.5682 18.8777 15.8177 19.9453 14.9042 21.5869C12.9404 24.9869 14.4052 29.9836 16.2863 32.7319C17.2275 34.0776 18.3274 35.5808 19.7667 35.5275C21.1751 35.4691 21.7011 34.6294 23.4012 34.6294C25.0855 34.6294 25.579 35.5275 27.0474 35.4936C28.5587 35.4691 29.5109 34.1419 30.419 32.7834C31.0952 31.8245 31.6156 30.7648 31.9608 29.6433C30.1848 28.8922 28.9987 27.1048 28.9966 25.1765Z" fill="white"/>
<path d="M26.223 16.9623C27.047 15.9731 27.4529 14.7017 27.3546 13.418C26.0957 13.5502 24.9328 14.1519 24.0977 15.1031C23.281 16.0325 22.856 17.2816 22.9364 18.5162C24.1957 18.5292 25.4338 17.9438 26.223 16.9623Z" fill="white"/>
</svg>
