<svg preserveAspectRatio="none" width="100%" height="100%" overflow="visible" style="display: block;" viewBox="0 0 61 10" fill="none" xmlns="http://www.w3.org/2000/svg">
<g id="wrapper">
<path id="Cellular Connection" fill-rule="evenodd" clip-rule="evenodd" d="M14.5413 1.16104C14.5413 0.681604 14.1796 0.29294 13.7334 0.29294H12.9256C12.4794 0.29294 12.1177 0.681604 12.1177 1.16104V8.68462C12.1177 9.16406 12.4794 9.55272 12.9256 9.55272H13.7334C14.1796 9.55272 14.5413 9.16406 14.5413 8.68462V1.16104ZM8.911 2.1449H9.71885C10.165 2.1449 10.5267 2.54289 10.5267 3.03383V8.66378C10.5267 9.15473 10.165 9.55272 9.71885 9.55272H8.911C8.46483 9.55272 8.10315 9.15473 8.10315 8.66378V3.03383C8.10315 2.54289 8.46483 2.1449 8.911 2.1449ZM5.63029 4.15118H4.82244C4.37628 4.15118 4.01459 4.55423 4.01459 5.05143V8.65246C4.01459 9.14966 4.37628 9.55271 4.82244 9.55271H5.63029C6.07645 9.55271 6.43814 9.14966 6.43814 8.65246V5.05143C6.43814 4.55423 6.07645 4.15118 5.63029 4.15118ZM1.6157 6.00314H0.807849C0.361686 6.00314 0 6.40044 0 6.89054V8.66533C0 9.15542 0.361686 9.55272 0.807849 9.55272H1.6157C2.06186 9.55272 2.42355 9.15542 2.42355 8.66533V6.89054C2.42355 6.40044 2.06186 6.00314 1.6157 6.00314Z" fill="var(--fill-0, white)"/>
<path id="Wifi" fill-rule="evenodd" clip-rule="evenodd" d="M27.0917 2.1223C28.9753 2.12238 30.7869 2.82073 32.1521 4.073C32.2549 4.16968 32.4192 4.16846 32.5204 4.07027L33.5031 3.11337C33.5544 3.06357 33.5829 2.9961 33.5825 2.92591C33.5821 2.85572 33.5527 2.78858 33.5008 2.73936C29.9178 -0.573868 24.265 -0.573868 20.682 2.73936C20.6301 2.78855 20.6006 2.85566 20.6001 2.92585C20.5997 2.99605 20.6282 3.06353 20.6794 3.11337L21.6624 4.07027C21.7635 4.16861 21.928 4.16983 22.0307 4.073C23.396 2.82064 25.2079 2.12229 27.0917 2.1223ZM27.0891 5.31856C28.1171 5.3185 29.1084 5.70607 29.8704 6.40596C29.9735 6.5053 30.1358 6.50314 30.2363 6.40111L31.2112 5.40192C31.2626 5.34951 31.291 5.27841 31.2903 5.20453C31.2896 5.13065 31.2597 5.06015 31.2073 5.00881C28.8869 2.8194 25.2934 2.8194 22.973 5.00881C22.9206 5.06015 22.8906 5.13069 22.89 5.20459C22.8893 5.2785 22.9179 5.34959 22.9693 5.40192L23.944 6.40111C24.0444 6.50314 24.2068 6.5053 24.3098 6.40596C25.0713 5.70653 26.0618 5.31899 27.0891 5.31856ZM29.001 7.43428C29.0025 7.51407 28.9744 7.59099 28.9235 7.64689L27.2749 9.506C27.2266 9.56064 27.1607 9.59139 27.092 9.59139C27.0232 9.59139 26.9574 9.56064 26.909 9.506L25.2602 7.64689C25.2093 7.59095 25.1813 7.514 25.1828 7.43422C25.1843 7.35443 25.2152 7.27887 25.2682 7.22539C26.321 6.2303 27.8629 6.2303 28.9157 7.22539C28.9687 7.27891 28.9996 7.35449 29.001 7.43428Z" fill="var(--fill-0, white)"/>
<g id="Battery">
<rect id="Border" opacity="0.35" x="40.0202" y="0.37861" width="18.1766" height="9.0883" rx="2.87796" stroke="var(--stroke-0, white)" stroke-width="0.757359"/>
<path id="Cap" opacity="0.4" d="M59.3326 3.62084V6.70743C59.9421 6.44601 60.3384 5.83788 60.3384 5.16413C60.3384 4.49038 59.9421 3.88225 59.3326 3.62084" fill="var(--fill-0, white)"/>
<rect id="Capacity" x="41.156" y="1.51452" width="15.9045" height="6.81623" rx="1.8934" fill="var(--fill-0, white)"/>
</g>
</g>
</svg>
