<svg preserveAspectRatio="none" width="100%" height="100%" overflow="visible" style="display: block;" viewBox="0 0 13 17" fill="none" xmlns="http://www.w3.org/2000/svg">
<path id="Vector" d="M3.60678 9.06133H3.22432C1.98787 9.06133 1.36965 9.06133 1.10613 8.65367C0.842615 8.24608 1.0937 7.67817 1.59587 6.54236L3.10557 3.12769C3.56214 2.095 3.79043 1.57865 4.23331 1.28932C4.67618 1 5.23825 1 6.3625 1H8.10366C9.46933 1 10.1522 1 10.4097 1.44613C10.6672 1.89225 10.3285 2.48823 9.65091 3.68019L8.75767 5.25157C8.42083 5.84412 8.25241 6.14041 8.25475 6.38293C8.25783 6.69813 8.42542 6.9885 8.69617 7.1475C8.9045 7.26992 9.24391 7.26992 9.92283 7.26992C10.7811 7.26992 11.2102 7.26992 11.4337 7.4185C11.7241 7.6115 11.8761 7.95683 11.8228 8.30267C11.7818 8.56883 11.4932 8.888 10.9158 9.52642L6.30325 14.6269C5.39725 15.6288 4.94425 16.1297 4.64006 15.9712C4.33586 15.8126 4.48194 15.1518 4.77408 13.8302L5.34642 11.2413C5.56883 10.235 5.68008 9.73183 5.41258 9.39658C5.14508 9.06133 4.63231 9.06133 3.60678 9.06133Z" stroke="var(--stroke-0, #99E39E)" stroke-width="1.25" stroke-linejoin="round"/>
</svg>
