<svg width="21" height="21" viewBox="0 0 21 21" fill="none" xmlns="http://www.w3.org/2000/svg">
<path d="M10.5938 20.7466C16.1166 20.7466 20.5938 16.2694 20.5938 10.7466C20.5938 5.22373 16.1166 0.746582 10.5938 0.746582C5.0709 0.746582 0.59375 5.22373 0.59375 10.7466C0.59375 16.2694 5.0709 20.7466 10.5938 20.7466Z" fill="#F49B33"/>
<path d="M14.2778 8.70445C14.18 7.45037 13.1043 7.01126 11.7428 6.86744L11.7735 5.13014L10.7169 5.11289L10.6863 6.80416C10.4082 6.79841 10.1244 6.80033 9.84061 6.80033L9.87129 5.09754L8.81473 5.07837L8.78404 6.81567C8.55586 6.81567 8.32959 6.81758 8.11099 6.81183V6.80608L6.65174 6.78115L6.63256 7.91058C6.63256 7.91058 7.41492 7.90867 7.4015 7.92401C7.82911 7.93168 7.96525 8.18288 8.00169 8.39764L7.96717 10.3765C7.99593 10.3765 8.03428 10.3785 8.07839 10.3861L7.96717 10.3842L7.91923 13.157C7.89814 13.2912 7.81569 13.5041 7.51463 13.5002C7.52805 13.5117 6.74569 13.4868 6.74569 13.4868L6.51367 14.7447L7.89047 14.7696C8.1455 14.7754 8.39862 14.7831 8.64598 14.7888L8.6153 16.5453L9.67187 16.5625L9.70255 14.8253C9.9921 14.8348 10.274 14.8425 10.5482 14.8483L10.5175 16.5779L11.5741 16.5951L11.6048 14.8425C13.3842 14.7716 14.6364 14.3459 14.8205 12.6776C14.9681 11.3353 14.3468 10.7236 13.3421 10.4648C13.9595 10.1656 14.3526 9.62295 14.2778 8.70445ZM12.7323 12.436C12.7112 13.7495 10.4638 13.5597 9.74665 13.5482L9.78884 11.2203C10.506 11.2318 12.7572 11.0649 12.7323 12.436ZM12.2989 9.14165C12.2778 10.3363 10.4044 10.1637 9.80801 10.1541L9.84445 8.04289C10.4408 8.05248 12.32 7.89524 12.2989 9.14165Z" fill="white"/>
</svg>
