<svg width="64" height="64" viewBox="0 0 64 64" fill="none" xmlns="http://www.w3.org/2000/svg">
<rect x="0.833008" y="0.693359" width="63.1688" height="63.1688" rx="31.5844" fill="#F49B33" fill-opacity="0.2"/>
<path d="M32.417 53.2778C44.015 53.2778 53.417 43.8758 53.417 32.2778C53.417 20.6799 44.015 11.2778 32.417 11.2778C20.819 11.2778 11.417 20.6799 11.417 32.2778C11.417 43.8758 20.819 53.2778 32.417 53.2778Z" fill="#F49B33"/>
<path d="M40.1524 27.9893C39.947 25.3557 37.6879 24.4336 34.8289 24.1316L34.8933 20.4832L32.6745 20.447L32.6101 23.9987C32.0262 23.9866 31.4302 23.9906 30.8342 23.9906L30.8987 20.4148L28.6799 20.3745L28.6154 24.0228C28.1362 24.0228 27.6611 24.0269 27.202 24.0148V24.0027L24.1376 23.9504L24.0973 26.3222C24.0973 26.3222 25.7403 26.3181 25.7121 26.3504C26.6101 26.3665 26.896 26.894 26.9725 27.345L26.9 31.5007C26.9604 31.5007 27.0409 31.5047 27.1336 31.5208L26.9 31.5168L26.7993 37.3396C26.755 37.6215 26.5819 38.0685 25.9497 38.0604C25.9779 38.0846 24.3349 38.0322 24.3349 38.0322L23.8477 40.6738L26.7389 40.7262C27.2745 40.7383 27.806 40.7544 28.3255 40.7665L28.2611 44.455L30.4799 44.4913L30.5443 40.843C31.1524 40.8631 31.7443 40.8792 32.3201 40.8913L32.2557 44.5235L34.4745 44.5597L34.5389 40.8792C38.2758 40.7302 40.9054 39.8363 41.292 36.3329C41.602 33.5141 40.2973 32.2295 38.1873 31.6859C39.4839 31.0577 40.3094 29.9181 40.1524 27.9893ZM36.9067 35.8255C36.8624 38.5839 32.143 38.1852 30.6369 38.1611L30.7255 33.2725C32.2315 33.2967 36.9591 32.9463 36.9067 35.8255ZM35.9966 28.9074C35.9524 31.4161 32.0181 31.0537 30.7658 31.0336L30.8423 26.6C32.0946 26.6202 36.0409 26.2899 35.9966 28.9074Z" fill="white"/>
</svg>
