<svg preserveAspectRatio="none" width="100%" height="100%" overflow="visible" style="display: block;" viewBox="0 0 321 668" fill="none" xmlns="http://www.w3.org/2000/svg">
<g id="Device Bezel Curve in Outline" filter="url(#filter0_f_2011_1059)">
<mask id="path-1-outside-1_2011_1059" maskUnits="userSpaceOnUse" x="0" y="0" width="320" height="668" fill="black">
<rect fill="white" width="320" height="668"/>
<path d="M236.538 1C265.522 1 280.015 0.999902 291.086 6.64062C300.824 11.6024 308.74 19.52 313.702 29.2578C319.343 40.3283 319.343 54.8205 319.343 83.8047V584.166C319.343 613.15 319.343 627.642 313.702 638.713C308.74 648.451 300.824 656.368 291.086 661.33C280.015 666.971 265.522 666.971 236.538 666.971H83.8047C54.8205 666.971 40.3283 666.971 29.2578 661.33C19.5199 656.368 11.6023 648.451 6.64062 638.713C1.00005 627.642 1 613.15 1 584.166V83.8047C1 54.8206 1.00003 40.3283 6.64062 29.2578C11.6023 19.5199 19.5199 11.6023 29.2578 6.64062C40.3283 1.00003 54.8206 1 83.8047 1H236.538Z"/>
</mask>
<path d="M236.538 1C265.522 1 280.015 0.999902 291.086 6.64062C300.824 11.6024 308.74 19.52 313.702 29.2578C319.343 40.3283 319.343 54.8205 319.343 83.8047V584.166C319.343 613.15 319.343 627.642 313.702 638.713C308.74 648.451 300.824 656.368 291.086 661.33C280.015 666.971 265.522 666.971 236.538 666.971H83.8047C54.8205 666.971 40.3283 666.971 29.2578 661.33C19.5199 656.368 11.6023 648.451 6.64062 638.713C1.00005 627.642 1 613.15 1 584.166V83.8047C1 54.8206 1.00003 40.3283 6.64062 29.2578C11.6023 19.5199 19.5199 11.6023 29.2578 6.64062C40.3283 1.00003 54.8206 1 83.8047 1H236.538Z" fill="var(--fill-0, black)"/>
<path d="M291.086 6.64062L291.315 6.19075L291.315 6.19075L291.086 6.64062ZM313.702 29.2578L314.152 29.0286L314.152 29.0286L313.702 29.2578ZM313.702 638.713L314.152 638.942L314.152 638.942L313.702 638.713ZM291.086 661.33L291.315 661.78L291.315 661.78L291.086 661.33ZM29.2578 661.33L29.0286 661.78L29.0286 661.78L29.2578 661.33ZM6.64062 638.713L6.19075 638.942L6.19075 638.942L6.64062 638.713ZM6.64062 29.2578L6.19075 29.0286L6.19075 29.0286L6.64062 29.2578ZM29.2578 6.64062L29.0286 6.19075L29.0286 6.19075L29.2578 6.64062ZM236.538 1V1.50491C251.039 1.50491 261.884 1.50527 270.489 2.20827C279.087 2.91079 285.404 4.31245 290.857 7.0905L291.086 6.64062L291.315 6.19075C285.697 3.32808 279.232 1.90943 270.571 1.20181C261.915 0.494677 251.022 0.495094 236.538 0.495094V1ZM291.086 6.64062L290.857 7.0905C300.499 12.0038 308.339 19.8442 313.252 29.487L313.702 29.2578L314.152 29.0286C309.142 19.1958 301.148 11.2009 291.315 6.19075L291.086 6.64062ZM313.702 29.2578L313.252 29.487C316.03 34.9393 317.432 41.2561 318.134 49.8547C318.837 58.4593 318.838 69.3043 318.838 83.8047H319.343H319.848C319.848 69.3209 319.848 58.4277 319.141 49.7725C318.433 41.1114 317.015 34.6469 314.152 29.0286L313.702 29.2578ZM319.343 83.8047H318.838V584.166H319.343H319.848V83.8047H319.343ZM319.343 584.166H318.838C318.838 598.666 318.837 609.511 318.134 618.116C317.432 626.715 316.03 633.031 313.252 638.484L313.702 638.713L314.152 638.942C317.015 633.324 318.433 626.859 319.141 618.198C319.848 609.543 319.848 598.65 319.848 584.166H319.343ZM313.702 638.713L313.252 638.484C308.339 648.127 300.499 655.967 290.857 660.88L291.086 661.33L291.315 661.78C301.148 656.77 309.142 648.775 314.152 638.942L313.702 638.713ZM291.086 661.33L290.857 660.88C285.404 663.658 279.087 665.06 270.489 665.762C261.884 666.465 251.039 666.466 236.538 666.466V666.971V667.476C251.022 667.476 261.915 667.476 270.571 666.769C279.232 666.061 285.697 664.643 291.315 661.78L291.086 661.33ZM236.538 666.971V666.466H83.8047V666.971V667.476H236.538V666.971ZM83.8047 666.971V666.466C69.3043 666.466 58.4593 666.465 49.8548 665.762C41.2561 665.06 34.9392 663.658 29.487 660.88L29.2578 661.33L29.0286 661.78C34.6469 664.643 41.1114 666.061 49.7725 666.769C58.4277 667.476 69.3209 667.476 83.8047 667.476V666.971ZM29.2578 661.33L29.487 660.88C19.8441 655.967 12.0038 648.127 7.0905 638.484L6.64062 638.713L6.19075 638.942C11.2009 648.775 19.1957 656.77 29.0286 661.78L29.2578 661.33ZM6.64062 638.713L7.0905 638.484C4.31253 633.031 2.91086 626.715 2.20833 618.116C1.50531 609.511 1.50491 598.666 1.50491 584.166H1H0.495094C0.495094 598.65 0.494715 609.543 1.20187 618.198C1.90951 626.859 3.32815 633.324 6.19075 638.942L6.64062 638.713ZM1 584.166H1.50491V83.8047H1H0.495094V584.166H1ZM1 83.8047H1.50491C1.50491 69.3043 1.50531 58.4593 2.20832 49.8548C2.91085 41.2561 4.31251 34.9392 7.0905 29.487L6.64062 29.2578L6.19075 29.0286C3.32814 34.6469 1.90949 41.1114 1.20186 49.7725C0.494709 58.4278 0.495094 69.321 0.495094 83.8047H1ZM6.64062 29.2578L7.0905 29.487C12.0038 19.8441 19.8441 12.0038 29.487 7.0905L29.2578 6.64062L29.0286 6.19075C19.1957 11.2009 11.2009 19.1957 6.19075 29.0286L6.64062 29.2578ZM29.2578 6.64062L29.487 7.0905C34.9392 4.31251 41.2561 2.91085 49.8548 2.20832C58.4593 1.50531 69.3043 1.50491 83.8047 1.50491V1V0.495094C69.321 0.495094 58.4278 0.494709 49.7725 1.20186C41.1114 1.90949 34.6469 3.32814 29.0286 6.19075L29.2578 6.64062ZM83.8047 1V1.50491H236.538V1V0.495094H83.8047V1Z" fill="var(--stroke-0, black)" mask="url(#path-1-outside-1_2011_1059)"/>
</g>
<defs>
<filter id="filter0_f_2011_1059" x="-0.00981164" y="-0.00981164" width="320.362" height="667.99" filterUnits="userSpaceOnUse" color-interpolation-filters="sRGB">
<feFlood flood-opacity="0" result="BackgroundImageFix"/>
<feBlend mode="normal" in="SourceGraphic" in2="BackgroundImageFix" result="shape"/>
<feGaussianBlur stdDeviation="0.252453" result="effect1_foregroundBlur_2011_1059"/>
</filter>
</defs>
</svg>
