<svg preserveAspectRatio="none" width="100%" height="100%" overflow="visible" style="display: block;" viewBox="0 0 20 17" fill="none" xmlns="http://www.w3.org/2000/svg">
<path id="Vector" d="M4.5825 1.23786C7.58958 1.768 9.3818 2.87693 10 3.51357C10.6182 2.87693 12.4104 1.768 15.4175 1.23786C16.9409 0.969293 17.7026 0.835012 18.3513 1.3497C19 1.8644 19 2.70019 19 4.3718V10.3791C19 11.9076 19 12.6718 18.5837 13.1489C18.1673 13.626 17.2507 13.7876 15.4175 14.1108C13.7833 14.3989 12.5079 14.8579 11.5847 15.3192C10.6765 15.7731 10.2223 16 10 16C9.7777 16 9.3235 15.7731 8.4153 15.3192C7.4921 14.8579 6.2167 14.3989 4.5825 14.1108C2.74929 13.7876 1.83268 13.626 1.41634 13.1489C1 12.6718 1 11.9076 1 10.3791V4.3718C1 2.70019 1 1.8644 1.6487 1.3497C2.29741 0.835012 3.05911 0.969293 4.5825 1.23786Z" stroke="var(--stroke-0, #000510)" stroke-width="2" stroke-linecap="round" stroke-linejoin="round"/>
</svg>
