<svg width="15" height="11" viewBox="0 0 15 11" fill="none" xmlns="http://www.w3.org/2000/svg">
<path fill-rule="evenodd" clip-rule="evenodd" d="M14.7698 1.68964C14.7698 1.2102 14.4081 0.821533 13.962 0.821533H13.1541C12.7079 0.821533 12.3463 1.2102 12.3463 1.68964V9.21321C12.3463 9.69265 12.7079 10.0813 13.1541 10.0813H13.962C14.4081 10.0813 14.7698 9.69265 14.7698 9.21321V1.68964ZM9.13951 2.67349H9.94736C10.3935 2.67349 10.7552 3.07148 10.7552 3.56243V9.19238C10.7552 9.68332 10.3935 10.0813 9.94736 10.0813H9.13951C8.69335 10.0813 8.33166 9.68332 8.33166 9.19238V3.56243C8.33166 3.07148 8.69335 2.67349 9.13951 2.67349ZM5.85881 4.67977H5.05096C4.60479 4.67977 4.24311 5.08283 4.24311 5.58002V9.18105C4.24311 9.67825 4.60479 10.0813 5.05096 10.0813H5.85881C6.30497 10.0813 6.66666 9.67825 6.66666 9.18105V5.58002C6.66666 5.08283 6.30497 4.67977 5.85881 4.67977ZM1.84421 6.53173H1.03636C0.590202 6.53173 0.228516 6.92903 0.228516 7.41913V9.19392C0.228516 9.68402 0.590202 10.0813 1.03636 10.0813H1.84421C2.29038 10.0813 2.65206 9.68402 2.65206 9.19392V7.41913C2.65206 6.92903 2.29038 6.53173 1.84421 6.53173Z" fill="white"/>
</svg>
