<svg width="1200" height="197" viewBox="0 0 1200 197" fill="none" xmlns="http://www.w3.org/2000/svg">
<path d="M19.2002 61.6536H6.68093H-6.97656V196.083H1203.99V74.744L1124.89 34.9691L1079.37 41.5144L1049.77 34.9691L1017.34 41.5144L976.246 8.72494L922.872 41.5144L847.186 49.57L810.196 34.9691L757.274 46.0457H723.698L670.207 29.9343L638.871 26.164L620.699 11.3056L601.351 0.229004L552.98 34.9691H530.218L511.439 42.5213H484.124L454.533 54.6049L409.008 49.57L370.312 57.6257L279.262 42.5213L224.751 10.9607L194.472 38.9969L131.874 54.6049H89.7635L36.8412 64.1709L19.2002 61.6536Z" fill="url(#paint0_linear_51_4374)"/>
<defs>
<linearGradient id="paint0_linear_51_4374" x1="598.505" y1="-877.471" x2="598.505" y2="168.971" gradientUnits="userSpaceOnUse">
<stop stop-color="#99E39E"/>
<stop offset="1" stop-color="#99E39E" stop-opacity="0"/>
</linearGradient>
</defs>
</svg>
