<svg width="1200" height="199" viewBox="0 0 1200 199" fill="none" xmlns="http://www.w3.org/2000/svg">
<path d="M18.2247 64.1748H5.6951H-7.97363V202.136H1203.99V77.6093L1124.83 36.7891L1079.26 43.5064L1049.64 36.7891L1017.18 43.5064L974.252 10.3143L922.64 43.5064L846.892 51.7738L809.872 36.7891L756.906 48.1568H723.303L669.767 31.6221L638.87 27.2938L620.218 12.5039L600.854 1.13623L552.444 36.7891H529.663L510.869 44.5399H483.531L453.916 56.9409L408.353 51.7738L369.625 60.0411L278.5 44.5399L223.754 11.2321L193.64 40.9229L130.991 56.9409H88.8461L35.8802 66.7583L18.2247 64.1748Z" stroke="#99E39E" stroke-width="1.5"/>
</svg>
