<svg preserveAspectRatio="none" width="100%" height="100%" overflow="visible" style="display: block;" viewBox="0 0 42 42" fill="none" xmlns="http://www.w3.org/2000/svg">
<g id="Group-46">
<g id="Group-45">
<path id="Oval" d="M21 42C32.598 42 42 32.598 42 21C42 9.40202 32.598 0 21 0C9.40202 0 0 9.40202 0 21C0 32.598 9.40202 42 21 42Z" fill="var(--fill-0, #627EEA)"/>
<path id="Path" d="M21.6544 5.24673V16.8892L31.4942 21.2866L21.6544 5.24673Z" fill="var(--fill-0, white)" fill-opacity="0.6"/>
<path id="Path_1_" d="M21.6546 5.24673L11.8148 21.2866L21.6546 16.8892V5.24673Z" fill="var(--fill-0, white)"/>
<path id="Path_2_" d="M21.6544 28.8304V36.7413L31.5 23.1183L21.6544 28.8304Z" fill="var(--fill-0, white)" fill-opacity="0.6"/>
<path id="Path_3_" d="M21.6546 36.7413V28.8304L11.8148 23.1183L21.6546 36.7413Z" fill="var(--fill-0, white)"/>
<path id="Path_4_" d="M21.6544 26.9993L31.4942 21.2871L21.6544 16.8897V26.9993Z" fill="var(--fill-0, white)" fill-opacity="0.2"/>
</g>
<path id="Path_5_" d="M11.8148 21.2871L21.6546 26.9993V16.8897L11.8148 21.2871Z" fill="var(--fill-0, white)" fill-opacity="0.6"/>
</g>
</svg>
