<svg preserveAspectRatio="none" width="100%" height="100%" overflow="visible" style="display: block;" viewBox="0 0 197 15" fill="none" xmlns="http://www.w3.org/2000/svg">
<g id="Logo">
<g id="Visa">
<path id="Vector 2" d="M176.446 11.78L178.003 2.5981H180.494L178.936 11.78H176.446ZM187.922 2.79953C187.208 2.53938 186.453 2.40884 185.693 2.41399C183.235 2.41399 181.503 3.65777 181.488 5.44074C181.475 6.75852 182.725 7.49353 183.668 7.93201C184.637 8.38173 184.962 8.66843 184.957 9.0699C184.951 9.68453 184.184 9.96513 183.469 9.96513C182.473 9.96513 181.945 9.82461 181.127 9.48404L180.807 9.33833L180.458 11.3911C181.039 11.6469 182.113 11.869 183.229 11.8802C185.844 11.8802 187.541 10.651 187.561 8.74713C187.57 7.70386 186.908 6.90982 185.472 6.25538C184.603 5.83376 184.07 5.548 184.076 5.11842C184.076 4.73756 184.527 4.33002 185.5 4.33002C186.139 4.31566 186.773 4.43533 187.362 4.68136L187.585 4.78723L187.922 2.79953V2.79953ZM194.321 2.5981H192.405C191.811 2.5981 191.367 2.76114 191.106 3.35608L187.423 11.7331H190.045C190.045 11.7331 190.464 10.6191 190.561 10.3746L193.702 10.3783C193.775 10.695 194 11.7331 194 11.7331H196.327L194.321 2.5981ZM191.274 8.50073C191.48 7.9723 192.265 5.93729 192.265 5.93729C192.25 5.96165 192.469 5.40606 192.595 5.06174L192.763 5.85252C192.763 5.85252 193.24 8.04163 193.339 8.50073H191.274ZM174.332 2.5981L171.902 8.83755L171.644 7.56943C171.192 6.10783 169.782 4.52443 168.206 3.73179L170.428 11.7331L173.054 11.7303L176.961 2.5981H174.32" fill="url(#paint0_linear_2011_1236)"/>
<path id="Vector 1" d="M169.525 2.59823H165.531L165.499 2.78888C168.62 3.54826 170.685 5.38276 171.542 7.58641L170.67 3.37025C170.519 2.78983 170.083 2.61649 169.543 2.59635" fill="url(#paint1_linear_2011_1236)"/>
</g>
<path id="Subtract" d="M9.06179 0.0823419C9.34735 -0.0630406 9.62913 0.0349829 9.72861 0.232096L9.73256 0.240864L9.73749 0.249627C10.9533 2.36141 11.6678 4.776 11.6816 7.39558C11.6954 10.0124 11.0075 12.4319 9.81623 14.5551C9.66494 14.7962 9.41136 14.8635 9.15413 14.7432C8.91992 14.5896 8.85653 14.336 8.97776 14.0791C10.1253 12.1112 10.7433 9.83115 10.7305 7.40067C10.7176 4.964 10.0214 2.69269 8.90905 0.744301C8.76976 0.460049 8.86746 0.181576 9.06179 0.0823419ZM6.10613 1.63919C6.38654 1.50468 6.65968 1.60311 6.75737 1.79684L6.7633 1.80951L6.77117 1.82119C7.77453 3.46487 8.332 5.36124 8.34282 7.41344C8.35361 9.46457 7.8165 11.3655 6.83149 13.0193C6.68046 13.2633 6.42496 13.3322 6.16648 13.2113C5.93155 13.0573 5.86836 12.8019 5.99107 12.5443C6.82884 11.0494 7.34973 9.28774 7.3399 7.41881C7.33009 5.55818 6.84649 3.79915 5.93583 2.30418C5.81261 2.04891 5.87367 1.79501 6.10613 1.63919ZM3.11525 3.18256C3.27614 3.0661 3.57762 3.10723 3.75676 3.34808C4.49723 4.52855 4.94446 5.95606 4.95224 7.43158C4.96027 8.95745 4.52874 10.3385 3.8001 11.5277C3.63154 11.7606 3.37301 11.8253 3.15058 11.6932C2.9097 11.5156 2.86589 11.2132 2.98018 11.0506L2.986 11.0427L2.99084 11.0339C3.63596 9.99531 4.00796 8.74223 4.00108 7.43667C3.9942 6.13131 3.6096 4.88196 2.95374 3.85043C2.81171 3.62398 2.87571 3.35643 3.11525 3.18256ZM0.194511 4.69528C0.419599 4.53191 0.710813 4.58238 0.842351 4.76506L0.844325 4.76896L0.84727 4.77187C1.13835 5.15755 1.37717 5.58616 1.51984 6.00657C1.67002 6.50115 1.76524 6.97968 1.76772 7.44862C1.77032 7.9421 1.72305 8.409 1.54282 8.86879C1.34655 9.3695 1.15724 9.75365 0.875691 10.1351L0.872777 10.138L0.870845 10.1419C0.741273 10.3261 0.450616 10.3796 0.223781 10.2186C0.0423567 10.0897 -0.0123507 9.80239 0.142247 9.57551C0.372909 9.28005 0.540671 8.93485 0.650742 8.59719C0.765348 8.24553 0.818626 7.84563 0.816559 7.45371C0.81449 7.0618 0.756939 6.66248 0.638632 6.31207C0.524992 5.9756 0.353589 5.63221 0.119798 5.33925C-0.0371679 5.11407 0.0145038 4.82622 0.194511 4.69528Z" fill="var(--fill-0, white)"/>
</g>
<defs>
<linearGradient id="paint0_linear_2011_1236" x1="182.267" y1="2.41384" x2="182.267" y2="11.8802" gradientUnits="userSpaceOnUse">
<stop stop-color="white"/>
<stop offset="1" stop-color="white" stop-opacity="0.75"/>
</linearGradient>
<linearGradient id="paint1_linear_2011_1236" x1="168.521" y1="2.59635" x2="168.521" y2="7.58641" gradientUnits="userSpaceOnUse">
<stop stop-color="white"/>
<stop offset="1" stop-color="white" stop-opacity="0.75"/>
</linearGradient>
</defs>
</svg>
