<svg preserveAspectRatio="none" width="100%" height="100%" overflow="visible" style="display: block;" viewBox="0 0 7 10" fill="none" xmlns="http://www.w3.org/2000/svg">
<path id="Vector" d="M6 2.8046C6 2.3694 5.98778 1.97821 5.63591 1.6722C5.50793 1.5609 5.33825 1.48361 4.99891 1.32905C4.55001 1.12458 4.32556 1.02235 4.10316 1.00436C3.43591 0.950404 3.07692 1.40581 2.69213 1.87318C1.74875 3.019 1.27706 3.5919 1.10446 4.2237C0.96518 4.7336 0.96518 5.2668 1.10446 5.7766C1.3562 6.6981 2.15152 7.4705 2.74021 8.1856C3.11129 8.6363 3.46577 9.0475 4.10316 8.996C4.32556 8.978 4.55001 8.8757 4.99891 8.6713C5.33825 8.5167 5.50793 8.4394 5.63591 8.3281C5.98778 8.0221 6 7.631 6 7.1957V2.8046Z" stroke="var(--stroke-0, #000510)" stroke-width="2"/>
</svg>
