<svg preserveAspectRatio="none" width="100%" height="100%" overflow="visible" style="display: block;" viewBox="0 0 122 41" fill="none" xmlns="http://www.w3.org/2000/svg">
<g id="Mobile app store badge">
<g id="App Store">
<path d="M82.7801 19.4963V21.8225H81.3219V23.3481H82.7801V28.5316C82.7801 30.3016 83.5808 31.0096 85.5952 31.0096C85.9492 31.0096 86.2863 30.9674 86.5813 30.9168V29.4081C86.3284 29.4334 86.1683 29.4503 85.8902 29.4503C84.9883 29.4503 84.5922 29.0289 84.5922 28.068V23.3481H86.5813V21.8225H84.5922V19.4963H82.7801Z" fill="var(--fill-0, white)"/>
<path d="M91.7129 31.136C94.3932 31.136 96.0367 29.3407 96.0367 26.3655C96.0367 23.4071 94.3847 21.6034 91.7129 21.6034C89.0326 21.6034 87.3807 23.4071 87.3807 26.3655C87.3807 29.3407 89.0242 31.136 91.7129 31.136ZM91.7129 29.5261C90.1368 29.5261 89.2518 28.3714 89.2518 26.3655C89.2518 24.3763 90.1368 23.2132 91.7129 23.2132C93.2806 23.2132 94.174 24.3763 94.174 26.3655C94.174 28.363 93.2806 29.5261 91.7129 29.5261Z" fill="var(--fill-0, white)"/>
<path d="M97.4429 30.959H99.255V25.5395C99.255 24.2499 100.224 23.3818 101.598 23.3818C101.918 23.3818 102.458 23.4408 102.61 23.4914V21.7045C102.416 21.6539 102.07 21.6287 101.8 21.6287C100.604 21.6287 99.5838 22.2861 99.3225 23.1879H99.1876V21.7804H97.4429V30.959Z" fill="var(--fill-0, white)"/>
<path d="M107.109 23.1458C108.449 23.1458 109.326 24.0813 109.368 25.5226H104.732C104.833 24.0898 105.769 23.1458 107.109 23.1458ZM109.359 28.481C109.022 29.1974 108.272 29.5936 107.176 29.5936C105.727 29.5936 104.791 28.5737 104.732 26.9639V26.8627H111.214V26.2306C111.214 23.3481 109.671 21.6034 107.117 21.6034C104.53 21.6034 102.886 23.4661 102.886 26.3992C102.886 29.3323 104.496 31.136 107.126 31.136C109.225 31.136 110.691 30.1246 111.104 28.481H109.359Z" fill="var(--fill-0, white)"/>
<path d="M70.8964 27.5695C71.0362 29.8233 72.9144 31.2647 75.7099 31.2647C78.6976 31.2647 80.567 29.7534 80.567 27.3423C80.567 25.4467 79.5013 24.3983 76.9154 23.7956L75.5264 23.4549C73.8841 23.0705 73.2202 22.5551 73.2202 21.6553C73.2202 20.5196 74.251 19.7771 75.7972 19.7771C77.2649 19.7771 78.2782 20.5021 78.4617 21.664H80.3661C80.2525 19.5412 78.3831 18.0474 75.8235 18.0474C73.0716 18.0474 71.2371 19.5412 71.2371 21.7863C71.2371 23.6383 72.2767 24.739 74.5567 25.2719L76.1816 25.665C77.8502 26.0582 78.584 26.6347 78.584 27.5957C78.584 28.7139 77.4309 29.5263 75.8584 29.5263C74.1724 29.5263 73.0018 28.7663 72.8358 27.5695H70.8964Z" fill="var(--fill-0, white)"/>
<path d="M52.1247 21.6287C50.8772 21.6287 49.7984 22.2524 49.2421 23.2975H49.1073V21.7804H47.3626V34.0101H49.1747V29.5683H49.318C49.7984 30.5376 50.8351 31.1107 52.1415 31.1107C54.4593 31.1107 55.9343 29.2817 55.9343 26.3655C55.9343 23.4492 54.4593 21.6287 52.1247 21.6287ZM51.6105 29.484C50.0934 29.484 49.141 28.2872 49.141 26.3739C49.141 24.4522 50.0934 23.2554 51.6189 23.2554C53.1529 23.2554 54.0716 24.4269 54.0716 26.3655C54.0716 28.3124 53.1529 29.484 51.6105 29.484Z" fill="var(--fill-0, white)"/>
<path d="M62.2753 21.6287C61.0278 21.6287 59.949 22.2524 59.3927 23.2975H59.2579V21.7804H57.5132V34.0101H59.3253V29.5683H59.4686C59.949 30.5376 60.9857 31.1107 62.2921 31.1107C64.6099 31.1107 66.0849 29.2817 66.0849 26.3655C66.0849 23.4492 64.6099 21.6287 62.2753 21.6287ZM61.7611 29.484C60.244 29.484 59.2916 28.2872 59.2916 26.3739C59.2916 24.4522 60.244 23.2554 61.7695 23.2554C63.3035 23.2554 64.2222 24.4269 64.2222 26.3655C64.2222 28.3124 63.3035 29.484 61.7611 29.484Z" fill="var(--fill-0, white)"/>
<path d="M44.1113 30.959H46.1904L41.639 18.3531H39.5337L34.9823 30.959H36.9916L38.1534 27.6131H42.9582L44.1113 30.959ZM40.4859 20.6419H40.6344L42.4602 25.9708H38.6514L40.4859 20.6419Z" fill="var(--fill-0, white)"/>
</g>
<g id="Download on the">
<path d="M36.1997 8.84493V14.9261H38.3953C40.2075 14.9261 41.2568 13.8093 41.2568 11.8665C41.2568 9.95328 40.199 8.84493 38.3953 8.84493H36.1997ZM37.1437 9.70464H38.29C39.55 9.70464 40.296 10.5053 40.296 11.8792C40.296 13.2741 39.5627 14.0664 38.29 14.0664H37.1437V9.70464Z" fill="var(--fill-0, white)"/>
<path d="M44.4706 15.0146C45.8107 15.0146 46.6325 14.1169 46.6325 12.6293C46.6325 11.1501 45.8065 10.2483 44.4706 10.2483C43.1305 10.2483 42.3045 11.1501 42.3045 12.6293C42.3045 14.1169 43.1263 15.0146 44.4706 15.0146ZM44.4706 14.2097C43.6825 14.2097 43.24 13.6323 43.24 12.6293C43.24 11.6348 43.6825 11.0532 44.4706 11.0532C45.2544 11.0532 45.7012 11.6348 45.7012 12.6293C45.7012 13.6281 45.2544 14.2097 44.4706 14.2097Z" fill="var(--fill-0, white)"/>
<path d="M53.6307 10.3368H52.7246L51.907 13.8388H51.8354L50.8914 10.3368H50.0233L49.0793 13.8388H49.0119L48.1901 10.3368H47.2714L48.5357 14.9261H49.467L50.411 11.5463H50.4826L51.4308 14.9261H52.3706L53.6307 10.3368Z" fill="var(--fill-0, white)"/>
<path d="M54.6741 14.9261H55.5802V12.2416C55.5802 11.5252 56.0058 11.0785 56.6759 11.0785C57.3459 11.0785 57.6662 11.4451 57.6662 12.1826V14.9261H58.5723V11.955C58.5723 10.8636 58.0076 10.2483 56.9835 10.2483C56.2924 10.2483 55.8373 10.5559 55.6139 11.0658H55.5465V10.3368H54.6741V14.9261Z" fill="var(--fill-0, white)"/>
<path d="M59.9992 14.9261H60.9053V8.54572H59.9992V14.9261Z" fill="var(--fill-0, white)"/>
<path d="M64.3129 15.0146C65.6531 15.0146 66.4748 14.1169 66.4748 12.6293C66.4748 11.1501 65.6489 10.2483 64.3129 10.2483C62.9728 10.2483 62.1468 11.1501 62.1468 12.6293C62.1468 14.1169 62.9686 15.0146 64.3129 15.0146ZM64.3129 14.2097C63.5249 14.2097 63.0824 13.6323 63.0824 12.6293C63.0824 11.6348 63.5249 11.0532 64.3129 11.0532C65.0968 11.0532 65.5435 11.6348 65.5435 12.6293C65.5435 13.6281 65.0968 14.2097 64.3129 14.2097Z" fill="var(--fill-0, white)"/>
<path d="M69.1745 14.2392C68.6814 14.2392 68.3232 13.999 68.3232 13.586C68.3232 13.1814 68.6098 12.9665 69.2419 12.9243L70.3629 12.8527V13.2362C70.3629 13.8051 69.8572 14.2392 69.1745 14.2392ZM68.9427 15.0019C69.5453 15.0019 70.0468 14.7407 70.3208 14.2813H70.3924V14.9261H71.2647V11.7907C71.2647 10.8214 70.6158 10.2483 69.4653 10.2483C68.4243 10.2483 67.6826 10.754 67.5899 11.542H68.4665C68.5676 11.2176 68.9174 11.0321 69.4231 11.0321C70.0426 11.0321 70.3629 11.306 70.3629 11.7907V12.1868L69.1197 12.2585C68.0282 12.3259 67.4129 12.8021 67.4129 13.6281C67.4129 14.4667 68.0577 15.0019 68.9427 15.0019Z" fill="var(--fill-0, white)"/>
<path d="M74.3395 15.0019C74.9716 15.0019 75.5068 14.7027 75.7807 14.2012H75.8524V14.9261H76.7205V8.54572H75.8144V11.0658H75.747C75.4984 10.5601 74.9674 10.2609 74.3395 10.2609C73.1805 10.2609 72.4346 11.1796 72.4346 12.6293C72.4346 14.0832 73.1721 15.0019 74.3395 15.0019ZM74.5965 11.0743C75.3551 11.0743 75.8313 11.6769 75.8313 12.6335C75.8313 13.5944 75.3593 14.1886 74.5965 14.1886C73.8295 14.1886 73.3702 13.6028 73.3702 12.6293C73.3702 11.6643 73.8338 11.0743 74.5965 11.0743Z" fill="var(--fill-0, white)"/>
<path d="M82.596 15.0146C83.9361 15.0146 84.7579 14.1169 84.7579 12.6293C84.7579 11.1501 83.9319 10.2483 82.596 10.2483C81.2559 10.2483 80.4299 11.1501 80.4299 12.6293C80.4299 14.1169 81.2517 15.0146 82.596 15.0146ZM82.596 14.2097C81.8079 14.2097 81.3654 13.6323 81.3654 12.6293C81.3654 11.6348 81.8079 11.0532 82.596 11.0532C83.3799 11.0532 83.8266 11.6348 83.8266 12.6293C83.8266 13.6281 83.3799 14.2097 82.596 14.2097Z" fill="var(--fill-0, white)"/>
<path d="M85.9573 14.9261H86.8634V12.2416C86.8634 11.5252 87.289 11.0785 87.9591 11.0785C88.6291 11.0785 88.9494 11.4451 88.9494 12.1826V14.9261H89.8555V11.955C89.8555 10.8636 89.2908 10.2483 88.2667 10.2483C87.5756 10.2483 87.1204 10.5559 86.8971 11.0658H86.8296V10.3368H85.9573V14.9261Z" fill="var(--fill-0, white)"/>
<path d="M94.0284 9.19471V10.3578H93.2993V11.1206H94.0284V13.7124C94.0284 14.5974 94.4288 14.9514 95.436 14.9514C95.613 14.9514 95.7815 14.9303 95.929 14.905V14.1507C95.8026 14.1633 95.7225 14.1717 95.5835 14.1717C95.1325 14.1717 94.9345 13.961 94.9345 13.4806V11.1206H95.929V10.3578H94.9345V9.19471H94.0284Z" fill="var(--fill-0, white)"/>
<path d="M97.1453 14.9261H98.0513V12.2458C98.0513 11.5505 98.4643 11.0827 99.206 11.0827C99.8466 11.0827 100.188 11.4535 100.188 12.1868V14.9261H101.094V11.9635C101.094 10.872 100.491 10.2525 99.5137 10.2525C98.8225 10.2525 98.3379 10.5601 98.1145 11.0743H98.0429V8.54572H97.1453V14.9261Z" fill="var(--fill-0, white)"/>
<path d="M104.363 11.0195C105.033 11.0195 105.471 11.4873 105.492 12.2079H103.174C103.225 11.4915 103.693 11.0195 104.363 11.0195ZM105.488 13.6871C105.319 14.0453 104.944 14.2434 104.396 14.2434C103.671 14.2434 103.204 13.7335 103.174 12.9285V12.878H106.415V12.5619C106.415 11.1206 105.644 10.2483 104.367 10.2483C103.073 10.2483 102.251 11.1796 102.251 12.6462C102.251 14.1127 103.056 15.0146 104.371 15.0146C105.42 15.0146 106.154 14.5089 106.36 13.6871H105.488Z" fill="var(--fill-0, white)"/>
</g>
<g id="Apple logo">
<path d="M25.1499 20.6131C25.1719 18.9062 26.0886 17.2911 27.5428 16.3971C26.6254 15.0869 25.0888 14.2563 23.4902 14.2062C21.7851 14.0273 20.1321 15.2265 19.2632 15.2265C18.3776 15.2265 17.0398 14.224 15.5992 14.2537C13.7215 14.3143 11.971 15.3819 11.0575 17.0235C9.09374 20.4234 10.5585 25.4202 12.4396 28.1684C13.3808 29.5142 14.4807 31.0174 15.92 30.9641C17.3284 30.9057 17.8544 30.066 19.5545 30.066C21.2387 30.066 21.7323 30.9641 23.2007 30.9302C24.712 30.9057 25.6642 29.5785 26.5723 28.22C27.2485 27.2611 27.7689 26.2013 28.1141 25.0799C26.3381 24.3287 25.152 22.5414 25.1499 20.6131Z" fill="var(--fill-0, white)"/>
<path d="M22.3762 12.3989C23.2003 11.4097 23.6062 10.1382 23.5079 8.85454C22.249 8.98676 21.0861 9.58844 20.251 10.5397C19.4343 11.4691 19.0093 12.7182 19.0897 13.9528C20.349 13.9658 21.5871 13.3804 22.3762 12.3989Z" fill="var(--fill-0, white)"/>
</g>
</g>
</svg>
