<svg preserveAspectRatio="none" width="100%" height="100%" overflow="visible" style="display: block;" viewBox="0 0 592 329" fill="none" xmlns="http://www.w3.org/2000/svg">
<g id="Group 85">
<g id="Group 39">
<path id="Vector 3" d="M7.61076 59.8244L24.4428 52.9542L40.7138 59.8244L60.9123 48.9466H81.1108L99.065 59.8244L113.092 48.9466L122.069 30.626L146.195 52.9542L178.737 39.7863L197.252 48.9466L235.405 39.7863L248.309 52.9542L264.019 48.9466H279.168L290.95 59.8244H312.832L327.981 69.5572L353.229 39.7863L372.305 59.8244L394.748 48.9466L416.63 52.9542L445.805 39.7863L471.615 43.7939L510.889 30.626L547.359 20.8931L587.195 2" stroke="url(#paint0_linear_2011_923)" stroke-width="2.6" stroke-linecap="round"/>
<path id="Vector 5" d="M7.61076 188.641L24.4428 181.771L40.7138 188.641L60.9123 177.763H81.1108L99.065 188.641L113.092 177.763L122.069 159.443L146.195 181.771L178.737 168.603L197.252 177.763L235.405 168.603L248.309 181.771L264.019 177.763H279.168L290.95 188.641H312.832L327.981 198.374L353.229 168.603L372.305 188.641L394.748 177.763L416.63 181.771L445.805 168.603L471.615 172.611L510.889 159.443L547.359 149.71L587.195 130.817" stroke="url(#paint1_linear_2011_923)" stroke-width="2.6" stroke-linecap="round"/>
<path id="Vector 7" d="M7.61076 316.885L24.4428 310.015L40.7138 316.885L60.9123 306.008H81.1108L99.065 316.885L113.092 306.008L122.069 287.687L146.195 310.015L178.737 296.847L197.252 306.008L235.405 296.847L248.309 310.015L264.019 306.008H279.168L290.95 316.885H312.832L327.981 326.618L353.229 296.847L372.305 316.885L394.748 306.008L416.63 310.015L445.805 296.847L471.615 300.855L510.889 287.687L547.359 277.954L587.195 259.061" stroke="url(#paint2_linear_2011_923)" stroke-width="2.6" stroke-linecap="round"/>
<path id="Vector 4" d="M2 120.511L26.687 114.214L43.5191 120.511L59.229 114.214H75.5L99.626 120.511L117.019 106.771L140.584 114.214L152.366 106.771L173.687 114.214L192.763 106.771L216.328 114.214L237.088 106.771L252.798 114.214H261.214L272.435 101.046L282.534 114.214L297.122 106.771H312.832L334.153 114.214L357.718 101.046L379.038 114.214L392.504 106.771L415.508 120.511L432.901 114.214H464.321L482.836 106.771H505.279L519.866 101.046H563.069L590 79.8625" stroke="url(#paint3_linear_2011_923)" stroke-width="2.6" stroke-linecap="round"/>
<path id="Vector 6" d="M2 249.328L26.687 243.031L43.5191 249.328L59.229 243.031H75.5L99.626 249.328L117.019 235.588L140.584 243.031L152.366 235.588L173.687 243.031L192.763 235.588L216.328 243.031L237.088 235.588L252.798 243.031H261.214L272.435 229.863L282.534 243.031L297.122 235.588H312.832L334.153 243.031L357.718 229.863L379.038 243.031L392.504 235.588L415.508 249.328L432.901 243.031H464.321L482.836 235.588H505.279L519.866 229.863H563.069L590 208.679" stroke="url(#paint4_linear_2011_923)" stroke-width="2.6" stroke-linecap="round"/>
</g>
<circle id="Ellipse 19" opacity="0.9" cx="72" cy="49.4731" r="6" fill="var(--fill-0, #E79740)"/>
<circle id="Ellipse 23" opacity="0.9" cx="56" cy="308.473" r="6" fill="var(--fill-0, #7E4BD0)"/>
<circle id="Ellipse 21" opacity="0.9" cx="71" cy="177.473" r="6" fill="var(--fill-0, #E30278)"/>
<circle id="Ellipse 22" opacity="0.9" cx="505" cy="236.473" r="6" fill="var(--fill-0, #3DC7C8)"/>
<circle id="Ellipse 20" opacity="0.9" cx="519" cy="101.473" r="6" fill="var(--fill-0, #326DC9)"/>
</g>
<defs>
<linearGradient id="paint0_linear_2011_923" x1="1.51007" y1="69.4732" x2="614.01" y2="69.4732" gradientUnits="userSpaceOnUse">
<stop stop-color="#000510"/>
<stop offset="0.505208" stop-color="#E79740"/>
<stop offset="1" stop-color="#000510" stop-opacity="0.04"/>
</linearGradient>
<linearGradient id="paint1_linear_2011_923" x1="-6.81993" y1="198.473" x2="611.56" y2="198.473" gradientUnits="userSpaceOnUse">
<stop stop-color="#000510"/>
<stop offset="0.5" stop-color="#E30278"/>
<stop offset="1" stop-color="#000510"/>
</linearGradient>
<linearGradient id="paint2_linear_2011_923" x1="-7.79993" y1="326.618" x2="587" y2="326.136" gradientUnits="userSpaceOnUse">
<stop stop-color="#000510"/>
<stop offset="0.489583" stop-color="#7E4BD0"/>
<stop offset="1" stop-color="#000510"/>
</linearGradient>
<linearGradient id="paint3_linear_2011_923" x1="-14.17" y1="128.473" x2="635.084" y2="120.79" gradientUnits="userSpaceOnUse">
<stop stop-color="#000510"/>
<stop offset="0.494792" stop-color="#326DC9"/>
<stop offset="1" stop-color="#000510"/>
</linearGradient>
<linearGradient id="paint4_linear_2011_923" x1="-12.21" y1="254.473" x2="611.07" y2="254.473" gradientUnits="userSpaceOnUse">
<stop stop-color="#000510"/>
<stop offset="0.494792" stop-color="#3DC7C8"/>
<stop offset="1" stop-color="#000510"/>
</linearGradient>
</defs>
</svg>
