<svg preserveAspectRatio="none" width="100%" height="100%" overflow="visible" style="display: block;" viewBox="0 0 319 666" fill="none" xmlns="http://www.w3.org/2000/svg">
<path id="Mask" d="M235.538 0C264.522 0 279.015 -9.83987e-05 290.086 5.64062C299.824 10.6024 307.74 18.52 312.702 28.2578C318.343 39.3283 318.343 53.8205 318.343 82.8047V583.166C318.343 612.15 318.343 626.642 312.702 637.713C307.74 647.451 299.824 655.368 290.086 660.33C279.015 665.971 264.522 665.971 235.538 665.971H82.8047C53.8205 665.971 39.3283 665.971 28.2578 660.33C18.5199 655.368 10.6023 647.451 5.64062 637.713C5.40955e-05 626.642 0 612.15 0 583.166V82.8047C0 53.8206 2.94072e-05 39.3283 5.64062 28.2578C10.6023 18.5199 18.5199 10.6023 28.2578 5.64062C39.3283 2.94072e-05 53.8206 0 82.8047 0H125.542C126.133 7.14098e-05 126.694 0.258684 127.078 0.708008L127.226 0.881836C127.705 1.44347 128.407 1.76649 129.146 1.7666H189.197C189.936 1.7665 190.638 1.44348 191.117 0.881836L191.266 0.708008C191.649 0.258855 192.21 8.7082e-05 192.801 0H235.538Z" fill="var(--fill-0, black)"/>
</svg>
