<svg width="101" height="93" viewBox="0 0 101 93" fill="none" xmlns="http://www.w3.org/2000/svg">
<path d="M22.1029 90.8607C19.3891 93.5745 14.9491 93.5977 12.5948 90.5667C9.27099 86.2876 6.58289 81.5355 4.62542 76.4564C1.83274 69.2102 0.589178 61.4593 0.974858 53.7032C1.36054 45.9471 3.36691 38.3578 6.86467 31.4244C10.3624 24.491 15.274 18.3674 21.2829 13.448C27.2917 8.5287 34.2646 4.92284 41.752 2.86281C49.2395 0.802777 57.0756 0.334285 64.7552 1.48752C72.4348 2.64076 79.7876 5.39013 86.3397 9.55848C90.9324 12.4802 95.0602 16.0536 98.5989 20.1568C101.105 23.0632 100.206 27.4112 97.0099 29.5358C93.8137 31.6604 89.5377 30.7415 86.9123 27.9421C84.5303 25.4021 81.8331 23.1638 78.8796 21.2849C73.9655 18.1587 68.4509 16.0966 62.6912 15.2317C56.9315 14.3668 51.0545 14.7181 45.4389 16.2632C39.8233 17.8082 34.5936 20.5126 30.087 24.2021C25.5803 27.8916 21.8967 32.4843 19.2733 37.6844C16.65 42.8844 15.1452 48.5764 14.856 54.3935C14.5667 60.2106 15.4994 66.0237 17.5939 71.4584C18.8527 74.7246 20.5144 77.8106 22.5341 80.6473C24.7601 83.7737 24.8167 88.1469 22.1029 90.8607Z" fill="#99E39E"/>
</svg>
