<svg width="113" height="93" viewBox="0 0 113 93" fill="none" xmlns="http://www.w3.org/2000/svg">
<path d="M22.1029 90.8607C19.3891 93.5745 14.949 93.5977 12.5947 90.5667C7.3153 83.7698 3.66582 75.8129 1.97448 67.3099C-0.170592 56.5259 0.930338 45.348 5.13805 35.1896C9.34576 25.0313 16.4713 16.3489 25.6135 10.2402C34.7558 4.13157 45.5041 0.871094 56.4994 0.871094C67.4947 0.871094 78.243 4.13157 87.3853 10.2402C96.5275 16.3489 103.653 25.0313 107.861 35.1897C112.068 45.348 113.169 56.5259 111.024 67.3099C109.333 75.8129 105.683 83.7698 100.404 90.5667C98.0498 93.5977 93.6097 93.5745 90.8959 90.8607C88.1821 88.1469 88.2387 83.7737 90.4647 80.6473C93.8671 75.8685 96.2385 70.4031 97.3931 64.5985C99.0019 56.5105 98.1762 48.127 95.0204 40.5083C91.8646 32.8896 86.5205 26.3777 79.6638 21.7962C72.8071 17.2147 64.7459 14.7694 56.4994 14.7694C48.2529 14.7694 40.1917 17.2147 33.335 21.7962C26.4783 26.3777 21.1342 32.8896 17.9784 40.5083C14.8226 48.127 13.9969 56.5105 15.6057 64.5985C16.7603 70.4031 19.1317 75.8685 22.5341 80.6473C24.76 83.7737 24.8167 88.1469 22.1029 90.8607Z" fill="white" fill-opacity="0.4"/>
</svg>
