<svg width="21" height="21" viewBox="0 0 21 21" fill="none" xmlns="http://www.w3.org/2000/svg">
<path d="M10.5938 20.2754C16.1166 20.2754 20.5938 15.7982 20.5938 10.2754C20.5938 4.75254 16.1166 0.275391 10.5938 0.275391C5.0709 0.275391 0.59375 4.75254 0.59375 10.2754C0.59375 15.7982 5.0709 20.2754 10.5938 20.2754Z" fill="#627EEA"/>
<path d="M10.9053 2.77393V8.31794L15.5909 10.412L10.9053 2.77393Z" fill="white" fill-opacity="0.6"/>
<path d="M10.9053 2.77393L6.21973 10.412L10.9053 8.31794V2.77393Z" fill="white"/>
<path d="M10.9053 14.0042V17.7713L15.5936 11.2842L10.9053 14.0042Z" fill="white" fill-opacity="0.6"/>
<path d="M10.9053 17.7713V14.0042L6.21973 11.2842L10.9053 17.7713Z" fill="white"/>
<path d="M10.9053 13.1322L15.5909 10.4122L10.9053 8.31812V13.1322Z" fill="white" fill-opacity="0.2"/>
<path d="M6.21973 10.4122L10.9053 13.1322V8.31812L6.21973 10.4122Z" fill="white" fill-opacity="0.6"/>
</svg>
