<svg width="64" height="65" viewBox="0 0 64 65" fill="none" xmlns="http://www.w3.org/2000/svg">
<rect x="0.503906" y="0.849609" width="63.1688" height="63.1688" rx="31.5844" fill="#627EEA" fill-opacity="0.2"/>
<path d="M32.0879 53.4341C43.6859 53.4341 53.0879 44.0321 53.0879 32.4341C53.0879 20.8361 43.6859 11.4341 32.0879 11.4341C20.4899 11.4341 11.0879 20.8361 11.0879 32.4341C11.0879 44.0321 20.4899 53.4341 32.0879 53.4341Z" fill="#627EEA"/>
<path d="M32.7422 16.6807V28.3231L42.582 32.7206L32.7422 16.6807Z" fill="white" fill-opacity="0.6"/>
<path d="M32.7421 16.6807L22.9023 32.7206L32.7421 28.3231V16.6807Z" fill="white"/>
<path d="M32.7422 40.2644V48.1753L42.5877 34.5522L32.7422 40.2644Z" fill="white" fill-opacity="0.6"/>
<path d="M32.7421 48.1753V40.2644L22.9023 34.5522L32.7421 48.1753Z" fill="white"/>
<path d="M32.7422 38.4334L42.582 32.7212L32.7422 28.3237V38.4334Z" fill="white" fill-opacity="0.2"/>
<path d="M22.9023 32.7212L32.7421 38.4334V28.3237L22.9023 32.7212Z" fill="white" fill-opacity="0.6"/>
</svg>
