<svg preserveAspectRatio="none" width="100%" height="100%" overflow="visible" style="display: block;" viewBox="0 0 7 10" fill="none" xmlns="http://www.w3.org/2000/svg">
<path id="Vector" d="M1 2.8045C1 2.4588 1 2.286 1.052 2.132C1.2032 1.68444 1.6018 1.51076 2.0011 1.32888C2.45 1.12442 2.6744 1.02219 2.8968 1.0042C3.1493 0.983781 3.4022 1.03818 3.618 1.15929C3.9041 1.31984 4.1036 1.62493 4.3079 1.87302C5.2513 3.0188 5.7229 3.5918 5.8955 4.2236C6.0348 4.7334 6.0348 5.2666 5.8955 5.7764C5.6438 6.6979 4.8485 7.4704 4.2598 8.1854C3.9587 8.5511 3.8081 8.734 3.618 8.8407C3.4022 8.9618 3.1493 9.0162 2.8968 8.9958C2.6744 8.9778 2.45 8.8756 2.0011 8.6711C1.6018 8.4892 1.2032 8.3156 1.052 7.868C1 7.714 1 7.5412 1 7.1955V2.8045Z" stroke="var(--stroke-0, #000510)" stroke-width="2"/>
</svg>
