<svg width="440" height="233" viewBox="0 0 440 233" fill="none" xmlns="http://www.w3.org/2000/svg">
<g opacity="0.05">
<path d="M120.749 7.19281C138.874 -23.4793 163.668 -50.0964 193.421 -70.8225C223.174 -91.5486 257.178 -105.891 293.087 -112.859C328.997 -119.828 365.957 -119.257 401.419 -111.186C436.88 -103.116 470 -87.7371 498.492 -66.1115L426.851 20.3033C411.255 8.46544 393.125 0.0472985 373.713 -4.37056C354.302 -8.78842 334.07 -9.10084 314.413 -5.28628C294.756 -1.47173 276.143 6.37903 259.856 17.7245C243.569 29.0699 229.997 43.6401 220.075 60.43L120.749 7.19281Z" fill="white"/>
<path d="M541.638 222.881C522.359 252.907 496.574 278.644 466.061 298.317C435.548 317.989 401.034 331.129 364.898 336.83C328.763 342.53 291.867 340.656 256.754 331.337C221.642 322.018 189.149 305.475 161.516 282.849L236.385 198.979C251.511 211.365 269.298 220.42 288.518 225.522C307.739 230.623 327.936 231.649 347.716 228.528C367.497 225.408 386.39 218.215 403.093 207.446C419.796 196.678 433.91 182.589 444.464 166.153L541.638 222.881Z" fill="white"/>
<path d="M276.731 124.266L155.515 252.485L123.591 36.6227L276.731 124.266Z" fill="white"/>
<path d="M208.138 134.41L86.9227 262.629L54.9986 46.7668L208.138 134.41Z" fill="white"/>
</g>
</svg>
