<svg width="24" height="25" viewBox="0 0 24 25" fill="none" xmlns="http://www.w3.org/2000/svg">
<path d="M6.23433 7.13623C4.60404 7.13623 3.7889 7.13623 3.32795 7.63126C2.86701 8.12629 2.96811 8.89313 3.17033 10.4268C3.22938 10.8747 3.3276 11.129 3.62734 11.4764C4.59564 12.5989 6.36901 14.5954 8.85746 16.4106C9.08486 16.5764 9.23409 16.8475 9.25927 17.1474C9.34268 18.1416 9.42401 19.0421 9.5007 19.8462C9.62524 21.152 9.68751 21.8049 10.1633 22.0521C10.639 22.2992 11.2333 21.9829 12.4219 21.3503L13.4884 20.7827C13.9287 20.5484 14.1489 20.4312 14.2852 20.2336C14.4216 20.036 14.4494 19.7977 14.5051 19.3213C14.577 18.7061 14.6529 17.9865 14.7307 17.1474C14.7583 16.8502 14.907 16.5822 15.1326 16.4178C17.6261 14.6004 19.403 12.6003 20.3726 11.4764C20.6724 11.129 20.7706 10.8747 20.8297 10.4268C21.0319 8.89313 21.133 8.12629 20.672 7.63126C20.2111 7.13623 19.396 7.13623 17.7657 7.13623" stroke="#99E39E" stroke-width="1.5" stroke-linecap="round" stroke-linejoin="round"/>
<path d="M9.625 9.63623V3.63623M11.5 3.63623V2.13623M11.5 11.1362V9.63623M9.625 6.63623H13.375M13.375 6.63623C13.9963 6.63623 14.5 7.13991 14.5 7.76123V8.51123C14.5 9.13255 13.9963 9.63623 13.375 9.63623H8.5M13.375 6.63623C13.9963 6.63623 14.5 6.13255 14.5 5.51123V4.76123C14.5 4.13991 13.9963 3.63623 13.375 3.63623H8.5" stroke="#99E39E" stroke-width="1.5" stroke-linecap="round" stroke-linejoin="round"/>
</svg>
