<svg width="133" height="45" viewBox="0 0 133 45" fill="none" xmlns="http://www.w3.org/2000/svg">
<rect x="0.154297" y="0.871094" width="132.846" height="44" rx="6.76923" fill="white" fill-opacity="0.1"/>
<path d="M66.9575 24.5009C64.7684 24.5009 62.9841 26.166 62.9841 28.4595C62.9841 30.7389 64.7684 32.418 66.9575 32.418C69.1476 32.418 70.9319 30.7389 70.9319 28.4595C70.931 26.166 69.1467 24.5009 66.9575 24.5009ZM66.9575 30.8599C65.7578 30.8599 64.7237 29.8705 64.7237 28.4604C64.7237 27.0354 65.7587 26.0609 66.9575 26.0609C68.1573 26.0609 69.1914 27.0354 69.1914 28.4604C69.1914 29.8696 68.1573 30.8599 66.9575 30.8599ZM58.2883 24.5009C56.0992 24.5009 54.3149 26.166 54.3149 28.4595C54.3149 30.7389 56.0992 32.418 58.2883 32.418C60.4784 32.418 62.2627 30.7389 62.2627 28.4595C62.2627 26.166 60.4784 24.5009 58.2883 24.5009ZM58.2883 30.8599C57.0886 30.8599 56.0545 29.8705 56.0545 28.4604C56.0545 27.0354 57.0895 26.0609 58.2883 26.0609C59.4881 26.0609 60.5222 27.0354 60.5222 28.4604C60.5231 29.8696 59.4881 30.8599 58.2883 30.8599ZM47.9773 25.7165V27.3956H51.9963C51.8763 28.3403 51.5617 29.03 51.0814 29.5094C50.4969 30.0939 49.5819 30.7389 47.9773 30.7389C45.5033 30.7389 43.5691 28.7443 43.5691 26.2703C43.5691 23.7963 45.5033 21.8017 47.9773 21.8017C49.312 21.8017 50.2865 22.3266 51.006 23.0014L52.1909 21.8166C51.1856 20.8569 49.8518 20.1226 47.9773 20.1226C44.5883 20.1226 41.7393 22.8814 41.7393 26.2703C41.7393 29.6592 44.5883 32.418 47.9773 32.418C49.8062 32.418 51.1866 31.8177 52.2653 30.6933C53.3748 29.5838 53.7201 28.0239 53.7201 26.7645C53.7201 26.3755 53.6903 26.0153 53.6298 25.7156H47.9773V25.7165ZM90.1486 27.0205C89.8191 26.1363 88.8138 24.5009 86.7596 24.5009C84.7203 24.5009 83.0254 26.1055 83.0254 28.4595C83.0254 30.6784 84.7054 32.418 86.9542 32.418C88.7682 32.418 89.8181 31.3085 90.2537 30.6635L88.9041 29.7635C88.4546 30.4234 87.8393 30.8581 86.9542 30.8581C86.0699 30.8581 85.4398 30.4532 85.0349 29.6583L90.3282 27.4691L90.1486 27.0205ZM84.7501 28.3403C84.7054 26.8101 85.935 26.0311 86.8201 26.0311C87.5098 26.0311 88.0944 26.3764 88.2898 26.8706L84.7501 28.3403ZM80.4472 32.1788H82.1858V20.5433H80.4472V32.1788ZM77.5971 25.3861H77.5376C77.1476 24.9207 76.3974 24.5009 75.4536 24.5009C73.4738 24.5009 71.6598 26.2405 71.6598 28.4753C71.6598 30.6942 73.4738 32.419 75.4536 32.419C76.3983 32.419 77.1476 31.9992 77.5376 31.5198H77.5971V32.0895C77.5971 33.6038 76.7874 34.4136 75.4834 34.4136C74.4186 34.4136 73.7586 33.6494 73.4887 33.0044L71.9744 33.6345C72.409 34.6835 73.5632 35.9736 75.4834 35.9736C77.5227 35.9736 79.2474 34.7738 79.2474 31.8493V24.742H77.5981V25.3861H77.5971ZM75.6034 30.8599C74.4037 30.8599 73.3994 29.8547 73.3994 28.4753C73.3994 27.0801 74.4037 26.0609 75.6034 26.0609C76.7874 26.0609 77.7172 27.0801 77.7172 28.4753C77.7172 29.8547 76.7874 30.8599 75.6034 30.8599ZM98.2965 20.5433H94.135V32.1788H95.8709V27.7707H98.2956C100.22 27.7707 102.114 26.3773 102.114 24.1574C102.114 21.9376 100.221 20.5433 98.2965 20.5433ZM98.3412 26.1511H95.8709V22.1628H98.3412C99.6396 22.1628 100.377 23.2378 100.377 24.1574C100.377 25.0584 99.6396 26.1511 98.3412 26.1511ZM109.075 24.4804C107.817 24.4804 106.515 25.0342 105.976 26.2619L107.518 26.9051C107.847 26.2619 108.461 26.0516 109.105 26.0516C110.003 26.0516 110.916 26.5905 110.931 27.5482V27.6683C110.616 27.4887 109.942 27.2197 109.119 27.2197C107.458 27.2197 105.766 28.1328 105.766 29.8389C105.766 31.396 107.129 32.3985 108.655 32.3985C109.822 32.3985 110.466 31.8745 110.87 31.2601H110.93V32.1583H112.607V27.6972C112.608 25.6327 111.065 24.4804 109.075 24.4804ZM108.864 30.8571C108.297 30.8571 107.503 30.5723 107.503 29.8686C107.503 28.9705 108.491 28.6261 109.345 28.6261C110.107 28.6261 110.467 28.7908 110.931 29.0151C110.796 30.0939 109.868 30.8571 108.864 30.8571ZM118.715 24.7345L116.724 29.7793H116.664L114.598 24.7345H112.727L115.826 31.7851L114.059 35.7074H115.87L120.646 24.7345H118.715ZM103.072 32.1788H104.808V20.5433H103.072V32.1788Z" fill="white"/>
<path d="M47.6744 13.7896C47.6744 14.5696 47.4435 15.1904 46.9809 15.6539C46.456 16.2049 45.7709 16.4805 44.9295 16.4805C44.1235 16.4805 43.4375 16.2012 42.8744 15.6428C42.3103 15.0834 42.0283 14.3909 42.0283 13.5644C42.0283 12.7369 42.3103 12.0444 42.8744 11.4859C43.4375 10.9266 44.1235 10.6473 44.9295 10.6473C45.3298 10.6473 45.7123 10.7255 46.0753 10.8809C46.4392 11.0373 46.7306 11.2449 46.9484 11.5046L46.4578 11.996C46.0883 11.5539 45.5792 11.3333 44.9286 11.3333C44.3403 11.3333 43.8321 11.5399 43.4031 11.9532C42.974 12.3665 42.7599 12.9035 42.7599 13.5634C42.7599 14.2233 42.974 14.7604 43.4031 15.1737C43.8321 15.5869 44.3403 15.7935 44.9286 15.7935C45.5522 15.7935 46.0725 15.586 46.4886 15.1699C46.7585 14.8991 46.9149 14.5221 46.9567 14.039H44.9286V13.368H47.6343C47.6623 13.5141 47.6744 13.6546 47.6744 13.7896Z" fill="white"/>
<path d="M51.9653 11.4571H49.4224V13.2275H51.7159V13.8986H49.4224V15.6689H51.9653V16.3558H48.7048V10.7712H51.9653V11.4571Z" fill="white"/>
<path d="M54.9911 16.3558H54.2735V11.4571H52.7135V10.7712H56.5511V11.4571H54.9911V16.3558Z" fill="white"/>
<path d="M59.3275 16.3558V10.7712H60.0452V16.3558H59.3275Z" fill="white"/>
<path d="M63.2276 16.3558H62.51V11.4571H60.95V10.7712H64.7876V11.4571H63.2276V16.3558Z" fill="white"/>
<path d="M72.052 15.6344C71.5029 16.1985 70.8206 16.4805 70.0043 16.4805C69.188 16.4805 68.5058 16.1985 67.9576 15.6344C67.4084 15.0704 67.1348 14.3798 67.1348 13.5635C67.1348 12.7472 67.4084 12.0566 67.9576 11.4925C68.5058 10.9285 69.188 10.6455 70.0043 10.6455C70.816 10.6455 71.4973 10.9294 72.0483 11.4962C72.5993 12.0631 72.8748 12.7518 72.8748 13.5635C72.8748 14.3798 72.6003 15.0704 72.052 15.6344ZM68.4872 15.1663C68.9004 15.5851 69.4058 15.7936 70.0043 15.7936C70.6028 15.7936 71.1092 15.5842 71.5215 15.1663C71.9347 14.7474 72.1423 14.2131 72.1423 13.5635C72.1423 12.9138 71.9347 12.3795 71.5215 11.9607C71.1092 11.5418 70.6028 11.3333 70.0043 11.3333C69.4058 11.3333 68.9004 11.5428 68.4872 11.9607C68.0748 12.3795 67.8673 12.9138 67.8673 13.5635C67.8673 14.2131 68.0748 14.7474 68.4872 15.1663Z" fill="white"/>
<path d="M73.8819 16.3558V10.7712H74.755L77.4691 15.1151H77.4998L77.4691 14.0391V10.7712H78.1867V16.3558H77.4375L74.5977 11.8006H74.567L74.5977 12.8766V16.3558H73.8819Z" fill="white"/>
<path d="M47.6744 13.7896C47.6744 14.5696 47.4435 15.1904 46.9809 15.6539C46.456 16.2049 45.7709 16.4805 44.9295 16.4805C44.1235 16.4805 43.4375 16.2012 42.8744 15.6428C42.3103 15.0834 42.0283 14.3909 42.0283 13.5644C42.0283 12.7369 42.3103 12.0444 42.8744 11.4859C43.4375 10.9266 44.1235 10.6473 44.9295 10.6473C45.3298 10.6473 45.7123 10.7255 46.0753 10.8809C46.4392 11.0373 46.7306 11.2449 46.9484 11.5046L46.4578 11.996C46.0883 11.5539 45.5792 11.3333 44.9286 11.3333C44.3403 11.3333 43.8321 11.5399 43.4031 11.9532C42.974 12.3665 42.7599 12.9035 42.7599 13.5634C42.7599 14.2233 42.974 14.7604 43.4031 15.1737C43.8321 15.5869 44.3403 15.7935 44.9286 15.7935C45.5522 15.7935 46.0725 15.586 46.4886 15.1699C46.7585 14.8991 46.9149 14.5221 46.9567 14.039H44.9286V13.368H47.6343C47.6623 13.5141 47.6744 13.6546 47.6744 13.7896Z" stroke="white" stroke-width="0.169231" stroke-miterlimit="10"/>
<path d="M51.9653 11.4571H49.4224V13.2275H51.7159V13.8986H49.4224V15.6689H51.9653V16.3558H48.7048V10.7712H51.9653V11.4571Z" stroke="white" stroke-width="0.169231" stroke-miterlimit="10"/>
<path d="M54.9911 16.3558H54.2735V11.4571H52.7135V10.7712H56.5511V11.4571H54.9911V16.3558Z" stroke="white" stroke-width="0.169231" stroke-miterlimit="10"/>
<path d="M59.3275 16.3558V10.7712H60.0452V16.3558H59.3275Z" stroke="white" stroke-width="0.169231" stroke-miterlimit="10"/>
<path d="M63.2276 16.3558H62.51V11.4571H60.95V10.7712H64.7876V11.4571H63.2276V16.3558Z" stroke="white" stroke-width="0.169231" stroke-miterlimit="10"/>
<path d="M72.052 15.6344C71.5029 16.1985 70.8206 16.4805 70.0043 16.4805C69.188 16.4805 68.5058 16.1985 67.9576 15.6344C67.4084 15.0704 67.1348 14.3798 67.1348 13.5635C67.1348 12.7472 67.4084 12.0566 67.9576 11.4925C68.5058 10.9285 69.188 10.6455 70.0043 10.6455C70.816 10.6455 71.4973 10.9294 72.0483 11.4962C72.5993 12.0631 72.8748 12.7518 72.8748 13.5635C72.8748 14.3798 72.6003 15.0704 72.052 15.6344ZM68.4872 15.1663C68.9004 15.5851 69.4058 15.7936 70.0043 15.7936C70.6028 15.7936 71.1092 15.5842 71.5215 15.1663C71.9347 14.7474 72.1423 14.2131 72.1423 13.5635C72.1423 12.9138 71.9347 12.3795 71.5215 11.9607C71.1092 11.5418 70.6028 11.3333 70.0043 11.3333C69.4058 11.3333 68.9004 11.5428 68.4872 11.9607C68.0748 12.3795 67.8673 12.9138 67.8673 13.5635C67.8673 14.2131 68.0748 14.7474 68.4872 15.1663Z" stroke="white" stroke-width="0.169231" stroke-miterlimit="10"/>
<path d="M73.8819 16.3558V10.7712H74.755L77.4691 15.1151H77.4998L77.4691 14.0391V10.7712H78.1867V16.3558H77.4375L74.5977 11.8006H74.567L74.5977 12.8766V16.3558H73.8819Z" stroke="white" stroke-width="0.169231" stroke-miterlimit="10"/>
<g filter="url(#filter0_ii_2068_562)">
<path d="M13.2522 11.272C12.9814 11.5587 12.8213 12.0036 12.8213 12.5798V33.1647C12.8213 33.7417 12.9814 34.1857 13.2522 34.4724L13.3211 34.5394L24.8524 23.0081V22.8722V22.7363L13.3211 11.2041L13.2522 11.272Z" fill="url(#paint0_linear_2068_562)"/>
<path d="M28.6957 26.853L24.8525 23.008V22.8721V22.7362L28.6966 18.8921L28.7832 18.9414L33.3374 21.529C34.6377 22.268 34.6377 23.4771 33.3374 24.217L28.7832 26.8046L28.6957 26.853Z" fill="url(#paint1_linear_2068_562)"/>
<g filter="url(#filter1_i_2068_562)">
<path d="M28.7828 26.8036L24.8512 22.8721L13.252 34.4722C13.6801 34.9265 14.3884 34.9823 15.1861 34.53L28.7828 26.8036Z" fill="url(#paint2_linear_2068_562)"/>
</g>
<path d="M28.7828 18.9405L15.1861 11.2152C14.3884 10.7619 13.6801 10.8186 13.252 11.2729L24.8521 22.873L28.7828 18.9405Z" fill="url(#paint3_linear_2068_562)"/>
</g>
<defs>
<filter id="filter0_ii_2068_562" x="12.8213" y="10.9023" width="21.4912" height="23.9399" filterUnits="userSpaceOnUse" color-interpolation-filters="sRGB">
<feFlood flood-opacity="0" result="BackgroundImageFix"/>
<feBlend mode="normal" in="SourceGraphic" in2="BackgroundImageFix" result="shape"/>
<feColorMatrix in="SourceAlpha" type="matrix" values="0 0 0 0 0 0 0 0 0 0 0 0 0 0 0 0 0 0 127 0" result="hardAlpha"/>
<feOffset dy="-0.126923"/>
<feComposite in2="hardAlpha" operator="arithmetic" k2="-1" k3="1"/>
<feColorMatrix type="matrix" values="0 0 0 0 0 0 0 0 0 0 0 0 0 0 0 0 0 0 0.12 0"/>
<feBlend mode="normal" in2="shape" result="effect1_innerShadow_2068_562"/>
<feColorMatrix in="SourceAlpha" type="matrix" values="0 0 0 0 0 0 0 0 0 0 0 0 0 0 0 0 0 0 127 0" result="hardAlpha"/>
<feOffset dy="0.126923"/>
<feComposite in2="hardAlpha" operator="arithmetic" k2="-1" k3="1"/>
<feColorMatrix type="matrix" values="0 0 0 0 1 0 0 0 0 1 0 0 0 0 1 0 0 0 0.25 0"/>
<feBlend mode="normal" in2="effect1_innerShadow_2068_562" result="effect2_innerShadow_2068_562"/>
</filter>
<filter id="filter1_i_2068_562" x="13.252" y="22.8721" width="15.5312" height="11.9702" filterUnits="userSpaceOnUse" color-interpolation-filters="sRGB">
<feFlood flood-opacity="0" result="BackgroundImageFix"/>
<feBlend mode="normal" in="SourceGraphic" in2="BackgroundImageFix" result="shape"/>
<feColorMatrix in="SourceAlpha" type="matrix" values="0 0 0 0 0 0 0 0 0 0 0 0 0 0 0 0 0 0 127 0" result="hardAlpha"/>
<feOffset dy="-0.126923"/>
<feComposite in2="hardAlpha" operator="arithmetic" k2="-1" k3="1"/>
<feColorMatrix type="matrix" values="0 0 0 0 0 0 0 0 0 0 0 0 0 0 0 0 0 0 0.08 0"/>
<feBlend mode="normal" in2="shape" result="effect1_innerShadow_2068_562"/>
</filter>
<linearGradient id="paint0_linear_2068_562" x1="23.8302" y1="12.362" x2="8.21008" y2="27.9821" gradientUnits="userSpaceOnUse">
<stop stop-color="#00A0FF"/>
<stop offset="0.0066" stop-color="#00A1FF"/>
<stop offset="0.2601" stop-color="#00BEFF"/>
<stop offset="0.5122" stop-color="#00D2FF"/>
<stop offset="0.7604" stop-color="#00DFFF"/>
<stop offset="1" stop-color="#00E3FF"/>
</linearGradient>
<linearGradient id="paint1_linear_2068_562" x1="35.03" y1="22.8721" x2="12.5092" y2="22.8721" gradientUnits="userSpaceOnUse">
<stop stop-color="#FFE000"/>
<stop offset="0.4087" stop-color="#FFBD00"/>
<stop offset="0.7754" stop-color="#FFA500"/>
<stop offset="1" stop-color="#FF9C00"/>
</linearGradient>
<linearGradient id="paint2_linear_2068_562" x1="26.6477" y1="25.0072" x2="5.46477" y2="46.1901" gradientUnits="userSpaceOnUse">
<stop stop-color="#FF3A44"/>
<stop offset="1" stop-color="#C31162"/>
</linearGradient>
<linearGradient id="paint3_linear_2068_562" x1="10.3306" y1="4.42035" x2="19.7894" y2="13.8791" gradientUnits="userSpaceOnUse">
<stop stop-color="#32A071"/>
<stop offset="0.0685" stop-color="#2DA771"/>
<stop offset="0.4762" stop-color="#15CF74"/>
<stop offset="0.8009" stop-color="#06E775"/>
<stop offset="1" stop-color="#00F076"/>
</linearGradient>
</defs>
</svg>
