<svg width="38" height="39" viewBox="0 0 38 39" fill="none" xmlns="http://www.w3.org/2000/svg">
<rect y="0.871094" width="38" height="38" rx="19" fill="white" fill-opacity="0.1"/>
<path d="M19.0039 15.3789C16.5195 15.3789 14.5156 17.3828 14.5156 19.8672C14.5156 22.3516 16.5195 24.3555 19.0039 24.3555C21.4883 24.3555 23.4922 22.3516 23.4922 19.8672C23.4922 17.3828 21.4883 15.3789 19.0039 15.3789ZM19.0039 22.7852C17.3984 22.7852 16.0859 21.4766 16.0859 19.8672C16.0859 18.2578 17.3945 16.9492 19.0039 16.9492C20.6133 16.9492 21.9219 18.2578 21.9219 19.8672C21.9219 21.4766 20.6094 22.7852 19.0039 22.7852ZM24.7227 15.1953C24.7227 15.7773 24.2539 16.2422 23.6758 16.2422C23.0938 16.2422 22.6289 15.7734 22.6289 15.1953C22.6289 14.6172 23.0977 14.1484 23.6758 14.1484C24.2539 14.1484 24.7227 14.6172 24.7227 15.1953ZM27.6953 16.2578C27.6289 14.8555 27.3086 13.6133 26.2812 12.5898C25.2578 11.5664 24.0156 11.2461 22.6133 11.1758C21.168 11.0938 16.8359 11.0938 15.3906 11.1758C13.9922 11.2422 12.75 11.5625 11.7227 12.5859C10.6953 13.6094 10.3789 14.8516 10.3086 16.2539C10.2266 17.6992 10.2266 22.0312 10.3086 23.4766C10.375 24.8789 10.6953 26.1211 11.7227 27.1445C12.75 28.168 13.9883 28.4883 15.3906 28.5586C16.8359 28.6406 21.168 28.6406 22.6133 28.5586C24.0156 28.4922 25.2578 28.1719 26.2812 27.1445C27.3047 26.1211 27.625 24.8789 27.6953 23.4766C27.7773 22.0312 27.7773 17.7031 27.6953 16.2578ZM25.8281 25.0273C25.5234 25.793 24.9336 26.3828 24.1641 26.6914C23.0117 27.1484 20.2773 27.043 19.0039 27.043C17.7305 27.043 14.9922 27.1445 13.8438 26.6914C13.0781 26.3867 12.4883 25.7969 12.1797 25.0273C11.7227 23.875 11.8281 21.1406 11.8281 19.8672C11.8281 18.5938 11.7266 15.8555 12.1797 14.707C12.4844 13.9414 13.0742 13.3516 13.8438 13.043C14.9961 12.5859 17.7305 12.6914 19.0039 12.6914C20.2773 12.6914 23.0156 12.5898 24.1641 13.043C24.9297 13.3477 25.5195 13.9375 25.8281 14.707C26.2852 15.8594 26.1797 18.5938 26.1797 19.8672C26.1797 21.1406 26.2852 23.8789 25.8281 25.0273Z" fill="white"/>
</svg>
