<svg width="24" height="25" viewBox="0 0 24 25" fill="none" xmlns="http://www.w3.org/2000/svg">
<path d="M12 11.6362C12.4955 11.6362 12.9562 11.4377 13.8775 11.0407L14.5423 10.7542C16.1808 10.0483 17 9.69525 17 9.13623C17 8.57721 16.1808 8.22421 14.5423 7.5182L13.8775 7.23172C12.9562 6.83473 12.4955 6.63623 12 6.63623C11.5045 6.63623 11.0438 6.83473 10.1225 7.23172L9.45768 7.5182C7.81923 8.22421 7 8.57721 7 9.13623C7 9.69525 7.81923 10.0483 9.45768 10.7542L10.1225 11.0407C11.0438 11.4377 11.5045 11.6362 12 11.6362ZM12 11.6362V17.6362" stroke="#99E39E" stroke-width="1.5" stroke-linejoin="round"/>
<path d="M17 9.13623V15.1362C17 15.6952 16.1808 16.0482 14.5423 16.7542L13.8775 17.0407C12.9562 17.4377 12.4955 17.6362 12 17.6362C11.5045 17.6362 11.0438 17.4377 10.1225 17.0407L9.45768 16.7542C7.81923 16.0482 7 15.6952 7 15.1362V9.13623" stroke="#99E39E" stroke-width="1.5" stroke-linejoin="round"/>
<path d="M9.14426 2.63623C6.48724 2.69698 4.93529 2.95079 3.87493 4.01116C2.81456 5.07152 2.56075 6.62347 2.5 9.28049M14.8557 2.63623C17.5128 2.69698 19.0647 2.95079 20.1251 4.01116C21.1854 5.07152 21.4392 6.62347 21.5 9.28049M14.8557 21.6362C17.5128 21.5754 19.0647 21.3216 20.1251 20.2613C21.1854 19.2009 21.4392 17.649 21.5 14.9919M9.14426 21.6362C6.48724 21.5754 4.93529 21.3216 3.87493 20.2613C2.81456 19.2009 2.56075 17.649 2.5 14.9919" stroke="#99E39E" stroke-width="1.5" stroke-linecap="round" stroke-linejoin="round"/>
</svg>
