<svg width="24" height="25" viewBox="0 0 24 25" fill="none" xmlns="http://www.w3.org/2000/svg">
<path d="M11.8013 6.62572L13.2869 5.14015C14.9596 3.46743 17.1495 2.7736 19.4671 2.66022C20.3686 2.61612 20.8193 2.59407 21.1807 2.95551C21.5422 3.31694 21.5201 3.76766 21.476 4.66912C21.3626 6.98673 20.6688 9.17665 18.9961 10.8493L17.5105 12.3349C16.2871 13.5583 15.9393 13.9062 16.1961 15.2332C16.4496 16.2469 16.6949 17.2285 15.9578 17.9656C15.0637 18.8597 14.2481 18.8597 13.354 17.9656L6.17058 10.7822C5.27649 9.88811 5.27646 9.07253 6.17058 8.17842C6.90767 7.44132 7.88929 7.68667 8.90297 7.94012C10.23 8.19696 10.5779 7.84912 11.8013 6.62572Z" stroke="#99E39E" stroke-width="1.5" stroke-linejoin="round"/>
<path d="M16.9961 7.13623H17.0051" stroke="#99E39E" stroke-width="2" stroke-linecap="round" stroke-linejoin="round"/>
<path d="M2.5 21.6362L7.5 16.6362" stroke="#99E39E" stroke-width="1.5" stroke-linecap="round"/>
<path d="M8.5 21.6362L10.5 19.6362" stroke="#99E39E" stroke-width="1.5" stroke-linecap="round"/>
<path d="M2.5 15.6362L4.5 13.6362" stroke="#99E39E" stroke-width="1.5" stroke-linecap="round"/>
</svg>
