<svg width="20" height="21" viewBox="0 0 20 21" fill="none" xmlns="http://www.w3.org/2000/svg">
<path d="M11.25 4.62109C11.25 3.93074 10.6903 3.37109 10 3.37109C9.30967 3.37109 8.75 3.93074 8.75 4.62109C8.75 5.31145 9.30967 5.87109 10 5.87109C10.6903 5.87109 11.25 5.31145 11.25 4.62109Z" fill="white" stroke="white" stroke-width="0.833333"/>
<path d="M11.25 10.8711C11.25 10.1808 10.6903 9.62109 10 9.62109C9.30967 9.62109 8.75 10.1808 8.75 10.8711C8.75 11.5614 9.30967 12.1211 10 12.1211C10.6903 12.1211 11.25 11.5614 11.25 10.8711Z" fill="white" stroke="white" stroke-width="0.833333"/>
<path d="M11.25 17.1211C11.25 16.4308 10.6903 15.8711 10 15.8711C9.30967 15.8711 8.75 16.4308 8.75 17.1211C8.75 17.8114 9.30967 18.3711 10 18.3711C10.6903 18.3711 11.25 17.8114 11.25 17.1211Z" fill="white" stroke="white" stroke-width="0.833333"/>
</svg>
