<svg width="14" height="11" viewBox="0 0 14 11" fill="none" xmlns="http://www.w3.org/2000/svg">
<path fill-rule="evenodd" clip-rule="evenodd" d="M7.32065 2.65082C9.20429 2.6509 11.0159 3.34925 12.381 4.60152C12.4838 4.6982 12.6482 4.69698 12.7494 4.59879L13.7321 3.64189C13.7833 3.59209 13.8119 3.52462 13.8115 3.45443C13.8111 3.38424 13.7817 3.3171 13.7298 3.26788C10.1467 -0.045348 4.49401 -0.045348 0.910939 3.26788C0.859035 3.31707 0.829586 3.38418 0.829107 3.45437C0.828629 3.52457 0.85716 3.59205 0.908388 3.64189L1.89134 4.59879C1.99252 4.69713 2.15696 4.69835 2.2597 4.60152C3.62502 3.34916 5.43683 2.65081 7.32065 2.65082ZM7.31811 5.84708C8.34609 5.84702 9.33738 6.23459 10.0994 6.93448C10.2024 7.03382 10.3648 7.03166 10.4653 6.92963L11.4402 5.93044C11.4915 5.87803 11.52 5.80693 11.5193 5.73305C11.5185 5.65917 11.4886 5.58867 11.4362 5.53733C9.11583 3.34792 5.52236 3.34792 3.20194 5.53733C3.14953 5.58867 3.11962 5.6592 3.11893 5.73311C3.11825 5.80701 3.14683 5.87811 3.19828 5.93044L4.17294 6.92963C4.2734 7.03166 4.43575 7.03382 4.53882 6.93448C5.30031 6.23505 6.29081 5.84751 7.31811 5.84708ZM9.23 7.9628C9.23146 8.04259 9.20339 8.11951 9.15242 8.17541L7.50391 10.0345C7.45558 10.0892 7.3897 10.1199 7.32095 10.1199C7.25221 10.1199 7.18632 10.0892 7.138 10.0345L5.48921 8.17541C5.43827 8.11947 5.41025 8.04252 5.41177 7.96274C5.41328 7.88295 5.44418 7.80739 5.49719 7.75391C6.54999 6.75882 8.09192 6.75882 9.14472 7.75391C9.19769 7.80743 9.22854 7.88301 9.23 7.9628Z" fill="white"/>
</svg>
